<?xml version="1.0" encoding="UTF-8" standalone="no"?>
<svg
   id="Layer_2"
   data-name="Layer 2"
   viewBox="0 0 1537.65 699.74"
   version="1.1"
   sodipodi:docname="tinken.svg"
   inkscape:version="1.1.2 (0a00cf5339, 2022-02-04)"
   xmlns:inkscape="http://www.inkscape.org/namespaces/inkscape"
   xmlns:sodipodi="http://sodipodi.sourceforge.net/DTD/sodipodi-0.dtd"
   xmlns="http://www.w3.org/2000/svg"
   xmlns:svg="http://www.w3.org/2000/svg">
  <sodipodi:namedview
     id="namedview931"
     pagecolor="#ffffff"
     bordercolor="#666666"
     borderopacity="1.0"
     inkscape:pageshadow="2"
     inkscape:pageopacity="0.0"
     inkscape:pagecheckerboard="0"
     showgrid="false"
     inkscape:zoom="0.86560659"
     inkscape:cx="769.40264"
     inkscape:cy="350.04354"
     inkscape:window-width="2560"
     inkscape:window-height="1348"
     inkscape:window-x="0"
     inkscape:window-y="0"
     inkscape:window-maximized="1"
     inkscape:current-layer="g2605" />
  <defs
     id="defs343">
    <style
       id="style2">
      .cls-1 {
        clip-path: url(#clippath-4);
      }

      .cls-1, .cls-2, .cls-3, .cls-4, .cls-5, .cls-6, .cls-7, .cls-8, .cls-9, .cls-10, .cls-11, .cls-12, .cls-13, .cls-14, .cls-15, .cls-16, .cls-17, .cls-18, .cls-19, .cls-20, .cls-21, .cls-22, .cls-23, .cls-24, .cls-25, .cls-26, .cls-27, .cls-28, .cls-29, .cls-30, .cls-31, .cls-32, .cls-33, .cls-34, .cls-35, .cls-36, .cls-37, .cls-38, .cls-39, .cls-40, .cls-41, .cls-42, .cls-43, .cls-44, .cls-45, .cls-46, .cls-47, .cls-48, .cls-49, .cls-50, .cls-51, .cls-52, .cls-53, .cls-54, .cls-55, .cls-56, .cls-57, .cls-58, .cls-59, .cls-60, .cls-61, .cls-62, .cls-63, .cls-64, .cls-65, .cls-66, .cls-67, .cls-68, .cls-69, .cls-70, .cls-71, .cls-72, .cls-73, .cls-74, .cls-75, .cls-76, .cls-77, .cls-78, .cls-79, .cls-80, .cls-81, .cls-82, .cls-83, .cls-84, .cls-85, .cls-86, .cls-87, .cls-88, .cls-89, .cls-90, .cls-91, .cls-92, .cls-93, .cls-94, .cls-95, .cls-96, .cls-97, .cls-98, .cls-99, .cls-100, .cls-101, .cls-102, .cls-103, .cls-104, .cls-105, .cls-106, .cls-107, .cls-108, .cls-109, .cls-110, .cls-111, .cls-112, .cls-113, .cls-114 {
        fill: none;
      }

      .cls-2 {
        clip-path: url(#clippath-88);
      }

      .cls-3 {
        clip-path: url(#clippath-93);
      }

      .cls-4 {
        clip-path: url(#clippath-98);
      }

      .cls-5 {
        clip-path: url(#clippath-64);
      }

      .cls-6 {
        clip-path: url(#clippath-83);
      }

      .cls-7 {
        clip-path: url(#clippath-2);
      }

      .cls-8 {
        clip-path: url(#clippath-76);
      }

      .cls-9 {
        clip-path: url(#clippath-6);
      }

      .cls-10 {
        clip-path: url(#clippath-55);
      }

      .cls-11 {
        clip-path: url(#clippath-9);
      }

      .cls-12 {
        clip-path: url(#clippath-73);
      }

      .cls-13 {
        clip-path: url(#clippath-102);
      }

      .cls-14 {
        clip-path: url(#clippath-68);
      }

      .cls-15 {
        clip-path: url(#clippath-112);
      }

      .cls-16 {
        clip-path: url(#clippath-45);
      }

      .cls-17 {
        clip-path: url(#clippath-12);
      }

      .cls-18 {
        clip-path: url(#clippath-94);
      }

      .cls-19 {
        clip-path: url(#clippath-81);
      }

      .cls-20 {
        clip-path: url(#clippath-100);
      }

      .cls-21 {
        clip-path: url(#clippath-75);
      }

      .cls-22 {
        clip-path: url(#clippath-32);
      }

      .cls-23 {
        clip-path: url(#clippath-13);
      }

      .cls-24 {
        clip-path: url(#clippath-84);
      }

      .cls-25 {
        clip-path: url(#clippath-106);
      }

      .cls-26 {
        clip-path: url(#clippath-85);
      }

      .cls-27 {
        clip-path: url(#clippath-103);
      }

      .cls-115 {
        fill: #834685;
      }

      .cls-115, .cls-116, .cls-117, .cls-118, .cls-119, .cls-120, .cls-121 {
        fill-rule: evenodd;
      }

      .cls-28 {
        clip-path: url(#clippath-74);
      }

      .cls-29 {
        clip-path: url(#clippath-36);
      }

      .cls-116 {
        fill: #007e91;
      }

      .cls-30 {
        clip-path: url(#clippath-57);
      }

      .cls-31 {
        clip-path: url(#clippath-77);
      }

      .cls-32 {
        clip-path: url(#clippath-21);
      }

      .cls-33 {
        clip-path: url(#clippath-90);
      }

      .cls-34 {
        clip-path: url(#clippath-28);
      }

      .cls-35 {
        clip-path: url(#clippath-108);
      }

      .cls-36 {
        clip-path: url(#clippath-47);
      }

      .cls-37 {
        clip-path: url(#clippath-7);
      }

      .cls-38 {
        clip-path: url(#clippath-43);
      }

      .cls-39 {
        clip-path: url(#clippath-63);
      }

      .cls-40 {
        clip-path: url(#clippath-18);
      }

      .cls-41 {
        clip-path: url(#clippath-40);
      }

      .cls-42 {
        clip-path: url(#clippath-101);
      }

      .cls-43 {
        clip-path: url(#clippath-27);
      }

      .cls-44 {
        clip-path: url(#clippath-37);
      }

      .cls-45 {
        clip-path: url(#clippath-105);
      }

      .cls-46 {
        clip-path: url(#clippath-10);
      }

      .cls-47 {
        clip-path: url(#clippath-34);
      }

      .cls-48 {
        clip-path: url(#clippath-46);
      }

      .cls-49 {
        clip-path: url(#clippath-95);
      }

      .cls-50 {
        clip-path: url(#clippath-35);
      }

      .cls-51 {
        clip-path: url(#clippath-58);
      }

      .cls-52 {
        clip-path: url(#clippath-22);
      }

      .cls-53 {
        clip-path: url(#clippath-5);
      }

      .cls-54 {
        clip-path: url(#clippath-87);
      }

      .cls-55 {
        clip-path: url(#clippath-104);
      }

      .cls-56 {
        clip-path: url(#clippath-24);
      }

      .cls-57 {
        clip-path: url(#clippath-26);
      }

      .cls-58 {
        clip-path: url(#clippath-69);
      }

      .cls-59 {
        clip-path: url(#clippath-48);
      }

      .cls-60 {
        clip-path: url(#clippath-92);
      }

      .cls-61 {
        clip-path: url(#clippath-51);
      }

      .cls-62 {
        clip-path: url(#clippath-111);
      }

      .cls-63 {
        clip-path: url(#clippath-110);
      }

      .cls-64 {
        clip-path: url(#clippath-31);
      }

      .cls-65 {
        clip-path: url(#clippath-52);
      }

      .cls-66 {
        clip-path: url(#clippath-50);
      }

      .cls-67 {
        clip-path: url(#clippath-42);
      }

      .cls-68 {
        clip-path: url(#clippath-16);
      }

      .cls-69 {
        clip-path: url(#clippath-15);
      }

      .cls-70 {
        clip-path: url(#clippath-44);
      }

      .cls-71 {
        clip-path: url(#clippath-3);
      }

      .cls-72 {
        clip-path: url(#clippath-11);
      }

      .cls-73 {
        clip-path: url(#clippath-29);
      }

      .cls-74 {
        clip-rule: evenodd;
      }

      .cls-75 {
        clip-path: url(#clippath-33);
      }

      .cls-76 {
        clip-path: url(#clippath-82);
      }

      .cls-77 {
        clip-path: url(#clippath-19);
      }

      .cls-117 {
        fill: #007b8d;
      }

      .cls-78 {
        clip-path: url(#clippath-56);
      }

      .cls-79 {
        clip-path: url(#clippath-70);
      }

      .cls-118 {
        fill: #96171d;
      }

      .cls-80 {
        clip-path: url(#clippath-20);
      }

      .cls-81 {
        clip-path: url(#clippath-23);
      }

      .cls-82 {
        clip-path: url(#clippath-89);
      }

      .cls-83 {
        clip-path: url(#clippath-86);
      }

      .cls-84 {
        clip-path: url(#clippath-17);
      }

      .cls-119 {
        fill: #00869a;
      }

      .cls-85 {
        clip-path: url(#clippath-78);
      }

      .cls-86 {
        clip-path: url(#clippath-96);
      }

      .cls-87 {
        clip-path: url(#clippath-71);
      }

      .cls-88 {
        clip-path: url(#clippath-53);
      }

      .cls-89 {
        clip-path: url(#clippath-66);
      }

      .cls-90 {
        clip-path: url(#clippath-61);
      }

      .cls-91 {
        clip-path: url(#clippath-54);
      }

      .cls-92 {
        clip-path: url(#clippath-38);
      }

      .cls-93 {
        clip-path: url(#clippath);
      }

      .cls-94 {
        clip-path: url(#clippath-60);
      }

      .cls-95 {
        clip-path: url(#clippath-80);
      }

      .cls-96 {
        clip-path: url(#clippath-67);
      }

      .cls-97 {
        clip-path: url(#clippath-1);
      }

      .cls-98 {
        clip-path: url(#clippath-8);
      }

      .cls-120 {
        fill: #dfdfdf;
      }

      .cls-99 {
        clip-path: url(#clippath-91);
      }

      .cls-100 {
        clip-path: url(#clippath-25);
      }

      .cls-101 {
        clip-path: url(#clippath-14);
      }

      .cls-102 {
        clip-path: url(#clippath-79);
      }

      .cls-103 {
        clip-path: url(#clippath-39);
      }

      .cls-104 {
        clip-path: url(#clippath-107);
      }

      .cls-105 {
        clip-path: url(#clippath-109);
      }

      .cls-106 {
        clip-path: url(#clippath-99);
      }

      .cls-107 {
        clip-path: url(#clippath-62);
      }

      .cls-108 {
        clip-path: url(#clippath-30);
      }

      .cls-121 {
        fill: #006b7b;
      }

      .cls-109 {
        clip-path: url(#clippath-65);
      }

      .cls-110 {
        clip-path: url(#clippath-72);
      }

      .cls-111 {
        clip-path: url(#clippath-97);
      }

      .cls-112 {
        clip-path: url(#clippath-41);
      }

      .cls-113 {
        clip-path: url(#clippath-59);
      }

      .cls-122 {
        fill: #fefefe;
      }

      .cls-114 {
        clip-path: url(#clippath-49);
      }
    </style>
    <clipPath
       id="clippath">
      <path
         class="cls-74"
         d="m104.73,168.65c-10.63-2.91-21.73-3.72-32.68-2.39l-1.63,22.3c-10.91,2.09-21.09,7.01-29.49,14.27l-18.5-12.56c-7.83,7.76-14.09,16.96-18.41,27.1l18.5,12.56c-3.65,10.49-4.47,21.76-2.39,32.68l-20.13,9.74c2.8,10.66,7.65,20.68,14.27,29.49l20.13-9.74c7.26,8.41,16.61,14.76,27.1,18.41l-1.63,22.3c10.63,2.91,21.73,3.72,32.68,2.39l1.63-22.3c10.91-2.09,21.09-7.01,29.49-14.27l18.5,12.56c7.83-7.76,14.09-16.96,18.41-27.1l-18.5-12.56c3.65-10.49,4.47-21.76,2.39-32.68l20.13-9.74c-2.8-10.66-7.65-20.68-14.27-29.49l-20.13,9.74c-7.26-8.41-16.61-14.76-27.1-18.41l1.63-22.3h0Zm-19.64,43.99c21.02,1.54,36.84,19.85,35.31,40.88s-19.85,36.84-40.88,35.31-36.84-19.85-35.31-40.88c1.54-21.02,19.85-36.84,40.88-35.31h0Z"
         id="path4" />
    </clipPath>
    <clipPath
       id="clippath-1">
      <path
         class="cls-74"
         d="m104.73,168.65c-10.63-2.91-21.73-3.72-32.68-2.39l-1.63,22.3c-10.91,2.09-21.09,7.01-29.49,14.27l-18.5-12.56c-7.83,7.76-14.09,16.96-18.41,27.1l18.5,12.56c-3.65,10.49-4.47,21.76-2.39,32.68l-20.13,9.74c2.8,10.66,7.65,20.68,14.27,29.49l20.13-9.74c7.26,8.41,16.61,14.76,27.1,18.41l-1.63,22.3c10.63,2.91,21.73,3.72,32.68,2.39l1.63-22.3c10.91-2.09,21.09-7.01,29.49-14.27l18.5,12.56c7.83-7.76,14.09-16.96,18.41-27.1l-18.5-12.56c3.65-10.49,4.47-21.76,2.39-32.68l20.13-9.74c-2.8-10.66-7.65-20.68-14.27-29.49l-20.13,9.74c-7.26-8.41-16.61-14.76-27.1-18.41l1.63-22.3h0Zm-19.64,43.99c21.02,1.54,36.84,19.85,35.31,40.88s-19.85,36.84-40.88,35.31-36.84-19.85-35.31-40.88c1.54-21.02,19.85-36.84,40.88-35.31h0Z"
         id="path7" />
    </clipPath>
    <clipPath
       id="clippath-2">
      <path
         class="cls-74"
         d="m85.25,208.11c23.53,1.72,41.22,22.36,39.49,46.05-1.73,23.7-22.24,41.54-45.77,39.82-23.53-1.72-41.23-22.36-39.49-46.05,1.73-23.7,22.24-41.54,45.77-39.82h0Z"
         id="path10" />
    </clipPath>
    <clipPath
       id="clippath-3">
      <path
         class="cls-74"
         d="m205.68,294.65c-9.94-2.1-20.13-2.74-30.25-1.9l-5.64,27.95c-7.41,1.38-14.58,3.84-21.28,7.29l-21.59-18.64c-8.51,5.54-16.17,12.3-22.74,20.05l15.78,23.75c-4.26,6.22-7.6,13.02-9.9,20.2l-28.44,2.09c-2.1,9.94-2.74,20.13-1.9,30.25l27.95,5.64c1.38,7.41,3.84,14.58,7.29,21.28l-18.64,21.59c5.54,8.51,12.3,16.17,20.05,22.74l23.75-15.78c6.22,4.26,13.02,7.6,20.2,9.9l2.09,28.44c9.94,2.1,20.13,2.74,30.25,1.9l5.64-27.95c7.41-1.38,14.58-3.84,21.28-7.29l21.59,18.64c8.51-5.54,16.17-12.3,22.74-20.05l-15.78-23.75c4.26-6.22,7.6-13.02,9.9-20.2l28.44-2.09c2.1-9.94,2.74-20.13,1.9-30.25l-27.95-5.64c-1.38-7.41-3.84-14.58-7.29-21.28l18.64-21.59c-5.54-8.51-12.3-16.17-20.05-22.74l-23.75,15.78c-6.22-4.26-13.02-7.6-20.2-9.9l-2.09-28.44h0Zm-18.19,47.71c30.2,1.9,53.17,27.96,51.27,58.16-1.9,30.2-27.96,53.17-58.16,51.27s-53.17-27.96-51.27-58.16,27.96-53.17,58.16-51.27h0Z"
         id="path13" />
    </clipPath>
    <clipPath
       id="clippath-4">
      <path
         class="cls-74"
         d="m205.68,294.65c-9.94-2.1-20.13-2.74-30.25-1.9l-5.64,27.95c-7.41,1.38-14.58,3.84-21.28,7.29l-21.59-18.64c-8.51,5.54-16.17,12.3-22.74,20.05l15.78,23.75c-4.26,6.22-7.6,13.02-9.9,20.2l-28.44,2.09c-2.1,9.94-2.74,20.13-1.9,30.25l27.95,5.64c1.38,7.41,3.84,14.58,7.29,21.28l-18.64,21.59c5.54,8.51,12.3,16.17,20.05,22.74l23.75-15.78c6.22,4.26,13.02,7.6,20.2,9.9l2.09,28.44c9.94,2.1,20.13,2.74,30.25,1.9l5.64-27.95c7.41-1.38,14.58-3.84,21.28-7.29l21.59,18.64c8.51-5.54,16.17-12.3,22.74-20.05l-15.78-23.75c4.26-6.22,7.6-13.02,9.9-20.2l28.44-2.09c2.1-9.94,2.74-20.13,1.9-30.25l-27.95-5.64c-1.38-7.41-3.84-14.58-7.29-21.28l18.64-21.59c-5.54-8.51-12.3-16.17-20.05-22.74l-23.75,15.78c-6.22-4.26-13.02-7.6-20.2-9.9l-2.09-28.44h0Zm-18.19,47.71c30.2,1.9,53.17,27.96,51.27,58.16-1.9,30.2-27.96,53.17-58.16,51.27s-53.17-27.96-51.27-58.16,27.96-53.17,58.16-51.27h0Z"
         id="path16" />
    </clipPath>
    <clipPath
       id="clippath-5">
      <path
         class="cls-74"
         d="m187.6,336.55c33.23,2.09,58.51,30.77,56.42,64-2.09,33.23-30.77,58.51-64,56.42-33.23-2.09-58.51-30.77-56.42-64,2.09-33.23,30.77-58.51,64-56.42h0Z"
         id="path19" />
    </clipPath>
    <clipPath
       id="clippath-6">
      <path
         class="cls-74"
         d="m271.78,339.93c-7.55,4.04-16.16,9.68-22.99,22.11,3.35,7.25,5.91,14.95,7.87,22.98,11.03,3.32,22.19,4.68,31.72,3.43l-27.96-5.65c-1.34-7.57-3.73-14.64-7.27-21.27l18.63-21.6h0Z"
         id="path22" />
    </clipPath>
    <clipPath
       id="clippath-7">
      <path
         class="cls-74"
         d="m205.83,294.68c-2.52,8.18-4.67,18.25-.78,31.89,7.48,2.79,14.72,6.47,21.77,10.79,10.17-5.4,19.05-12.29,24.95-19.89l-23.84,15.66c-6.28-4.43-12.95-7.77-20.13-9.99l-1.97-28.46h0Z"
         id="path25" />
    </clipPath>
    <clipPath
       id="clippath-8">
      <path
         class="cls-74"
         d="m126.94,309.31c4.02,7.56,9.63,16.19,22.05,23.05,7.26-3.33,14.97-5.87,23-7.81,3.35-11.02,4.73-22.17,3.51-31.71l-5.72,27.94c-7.57,1.32-14.65,3.69-21.29,7.22l-21.55-18.68h0Z"
         id="path28" />
    </clipPath>
    <clipPath
       id="clippath-9">
      <path
         class="cls-74"
         d="m81.75,375.51c8.19,2.49,18.26,4.61,31.89.67,2.77-7.49,6.42-14.74,10.71-21.81-5.44-10.15-12.36-19.01-19.97-24.88l15.74,23.78c-4.41,6.3-7.73,12.98-9.92,20.17l-28.45,2.06h0Z"
         id="path31" />
    </clipPath>
    <clipPath
       id="clippath-10">
      <path
         class="cls-74"
         d="m96.21,454.21c7.56-4.03,16.18-9.65,23.02-22.07-3.34-7.26-5.88-14.96-7.84-23-11.02-3.33-22.18-4.71-31.71-3.47l27.95,5.69c1.33,7.57,3.71,14.65,7.24,21.28l-18.66,21.57h0Z"
         id="path34" />
    </clipPath>
    <clipPath
       id="clippath-11">
      <path
         class="cls-74"
         d="m162.39,499.56c2.51-8.19,4.65-18.25.74-31.89-7.49-2.78-14.73-6.45-21.78-10.76-10.16,5.42-19.04,12.31-24.92,19.92l23.82-15.69c6.29,4.43,12.96,7.76,20.14,9.97l2,28.45h0Z"
         id="path37" />
    </clipPath>
    <clipPath
       id="clippath-12">
      <path
         class="cls-74"
         d="m241.26,484.72c-4.05-7.54-9.71-16.14-22.16-22.94-7.24,3.37-14.94,5.94-22.97,7.92-3.29,11.04-4.63,22.2-3.36,31.72l5.59-27.97c7.57-1.36,14.63-3.76,21.25-7.32l21.64,18.58h0Z"
         id="path40" />
    </clipPath>
    <clipPath
       id="clippath-13">
      <path
         class="cls-74"
         d="m286.81,419.08c-8.19-2.48-18.27-4.59-31.89-.62-2.76,7.5-6.4,14.75-10.69,21.82,5.45,10.14,12.38,19,20,24.85l-15.77-23.76c4.4-6.3,7.71-12.99,9.9-20.18l28.45-2.1h0Z"
         id="path43" />
    </clipPath>
    <clipPath
       id="clippath-14">
      <path
         class="cls-74"
         d="m401.53,71.18c-10.65-1.99-21.46-2.94-32.29-2.85l-8.66,35.94c-8.51.66-16.93,2.14-25.15,4.42l-20.39-30.84c-10.21,3.6-20.06,8.18-29.39,13.68l10.47,35.46c-7.04,4.82-13.59,10.31-19.57,16.4l-33.08-16.51c-7.05,8.22-13.28,17.11-18.61,26.54l26.8,25.47c-3.69,7.7-6.62,15.73-8.75,23.99l-36.9,2.24c-1.99,10.65-2.94,21.46-2.85,32.29l35.94,8.66c.66,8.51,2.14,16.93,4.42,25.15l-30.84,20.39c3.6,10.21,8.18,20.06,13.68,29.39l35.46-10.47c4.82,7.04,10.31,13.59,16.4,19.57l-16.51,33.08c8.22,7.05,17.11,13.28,26.54,18.61l25.47-26.8c7.7,3.69,15.73,6.62,23.99,8.75l2.24,36.9c10.65,1.99,21.46,2.94,32.29,2.85l8.66-35.94c8.51-.66,16.93-2.14,25.15-4.42l20.39,30.84c10.21-3.6,20.06-8.18,29.39-13.68l-10.47-35.46c7.04-4.82,13.59-10.31,19.57-16.4l33.08,16.51c7.05-8.22,13.28-17.11,18.61-26.54l-26.8-25.47c3.69-7.7,6.62-15.73,8.75-23.99l36.9-2.24c1.99-10.65,2.94-21.46,2.85-32.29l-35.94-8.66c-.66-8.51-2.14-16.93-4.42-25.15l30.84-20.39c-3.6-10.21-8.18-20.06-13.68-29.39l-35.46,10.47c-4.82-7.04-10.31-13.59-16.4-19.57l16.51-33.08c-8.22-7.05-17.11-13.28-26.54-18.61l-25.47,26.8c-7.7-3.68-15.73-6.62-23.99-8.75l-2.24-36.9h0Zm-23.42,81.08c46.17,4.07,80.35,44.86,76.28,91.02-4.07,46.17-44.86,80.35-91.02,76.28-46.17-4.07-80.35-44.86-76.28-91.02s44.86-80.35,91.02-76.28h0Z"
         id="path46" />
    </clipPath>
    <clipPath
       id="clippath-15">
      <path
         class="cls-74"
         d="m401.53,71.18c-10.65-1.99-21.46-2.94-32.29-2.85l-8.66,35.94c-8.51.66-16.93,2.14-25.15,4.42l-20.39-30.84c-10.21,3.6-20.06,8.18-29.39,13.68l10.47,35.46c-7.04,4.82-13.59,10.31-19.57,16.4l-33.08-16.51c-7.05,8.22-13.28,17.11-18.61,26.54l26.8,25.47c-3.69,7.7-6.62,15.73-8.75,23.99l-36.9,2.24c-1.99,10.65-2.94,21.46-2.85,32.29l35.94,8.66c.66,8.51,2.14,16.93,4.42,25.15l-30.84,20.39c3.6,10.21,8.18,20.06,13.68,29.39l35.46-10.47c4.82,7.04,10.31,13.59,16.4,19.57l-16.51,33.08c8.22,7.05,17.11,13.28,26.54,18.61l25.47-26.8c7.7,3.69,15.73,6.62,23.99,8.75l2.24,36.9c10.65,1.99,21.46,2.94,32.29,2.85l8.66-35.94c8.51-.66,16.93-2.14,25.15-4.42l20.39,30.84c10.21-3.6,20.06-8.18,29.39-13.68l-10.47-35.46c7.04-4.82,13.59-10.31,19.57-16.4l33.08,16.51c7.05-8.22,13.28-17.11,18.61-26.54l-26.8-25.47c3.69-7.7,6.62-15.73,8.75-23.99l36.9-2.24c1.99-10.65,2.94-21.46,2.85-32.29l-35.94-8.66c-.66-8.51-2.14-16.93-4.42-25.15l30.84-20.39c-3.6-10.21-8.18-20.06-13.68-29.39l-35.46,10.47c-4.82-7.04-10.31-13.59-16.4-19.57l16.51-33.08c-8.22-7.05-17.11-13.28-26.54-18.61l-25.47,26.8c-7.7-3.68-15.73-6.62-23.99-8.75l-2.24-36.9h0Zm-23.42,81.08c46.17,4.07,80.35,44.86,76.28,91.02-4.07,46.17-44.86,80.35-91.02,76.28-46.17-4.07-80.35-44.86-76.28-91.02s44.86-80.35,91.02-76.28h0Z"
         id="path49" />
    </clipPath>
    <clipPath
       id="clippath-16">
      <path
         class="cls-74"
         d="m379.84,139.29c52.88,4.66,91.98,51.9,87.27,105.41-4.72,53.52-51.48,93.18-104.36,88.52-52.88-4.66-91.98-51.9-87.27-105.41,4.72-53.52,51.48-93.18,104.36-88.52h0Z"
         id="path52" />
    </clipPath>
    <clipPath
       id="clippath-17">
      <path
         class="cls-74"
         d="m479.79,108.62c-10.13,9.34-19.4,21.69-25.09,34.74,8.54,7.25,14.75,15.32,21.47,26.3,13.35-3.14,27.14-10.45,39.39-19l-35.88,10.62c-4.99-7.13-10.39-13.65-16.36-19.65l16.47-33.02h0Z"
         id="path55" />
    </clipPath>
    <clipPath
       id="clippath-18">
      <path
         class="cls-74"
         d="m401.59,71.29c-4.1,13.16-5.95,28.48-4.36,42.63,11.02,2,20.44,5.89,31.74,12.04,9.99-9.4,18.27-22.62,24.61-36.14l-25.76,27.14c-7.89-3.68-15.83-6.63-24-8.83l-2.25-36.83h0Z"
         id="path58" />
    </clipPath>
    <clipPath
       id="clippath-19">
      <path
         class="cls-74"
         d="m315.11,78.04c3.03,13.44,9.08,27.64,17.54,39.1,10.55-3.77,20.64-5.11,33.51-5.44,3.95-13.14,4.52-28.73,3.24-43.61l-8.74,36.38c-8.67.76-17.02,2.17-25.2,4.35l-20.36-30.77h0Z"
         id="path61" />
    </clipPath>
    <clipPath
       id="clippath-20">
      <path
         class="cls-74"
         d="m243.49,126.88c9.34,10.13,21.69,19.4,34.74,25.09,7.25-8.54,15.32-14.75,26.3-21.47-3.14-13.35-10.45-27.14-19-39.39l10.62,35.88c-7.13,4.99-13.65,10.39-19.65,16.36l-33.02-16.47h0Z"
         id="path64" />
    </clipPath>
    <clipPath
       id="clippath-21">
      <path
         class="cls-74"
         d="m206.12,205.06c13.16,4.1,28.48,5.95,42.63,4.35,2-11.02,5.89-20.44,12.04-31.74-9.4-9.99-22.62-18.27-36.14-24.61l27.14,25.76c-3.67,7.89-6.63,15.83-8.83,24l-36.83,2.25h0Z"
         id="path67" />
    </clipPath>
    <clipPath
       id="clippath-22">
      <path
         class="cls-74"
         d="m212.84,291.6c13.44-3.03,27.64-9.08,39.1-17.54-3.77-10.55-5.11-20.64-5.44-33.51-13.14-3.95-28.73-4.52-43.61-3.24l36.38,8.74c.76,8.67,2.17,17.02,4.35,25.2l-30.77,20.36h0Z"
         id="path70" />
    </clipPath>
    <clipPath
       id="clippath-23">
      <path
         class="cls-74"
         d="m261.73,363.13c10.13-9.34,19.4-21.69,25.09-34.74-8.54-7.25-14.75-15.32-21.47-26.3-13.35,3.14-27.14,10.45-39.39,19l35.88-10.62c4.99,7.13,10.39,13.66,16.36,19.65l-16.47,33.02h0Z"
         id="path73" />
    </clipPath>
    <clipPath
       id="clippath-24">
      <path
         class="cls-74"
         d="m339.98,400.54c4.1-13.16,5.95-28.48,4.36-42.63-11.02-2-20.44-5.89-31.74-12.04-9.99,9.4-18.27,22.62-24.61,36.14l25.76-27.14c7.89,3.67,15.83,6.63,24,8.83l2.25,36.83h0Z"
         id="path76" />
    </clipPath>
    <clipPath
       id="clippath-25">
      <path
         class="cls-74"
         d="m426.46,394.08c-3.03-13.44-9.08-27.64-17.54-39.1-10.55,3.77-20.64,5.11-33.51,5.44-3.95,13.14-4.52,28.73-3.24,43.61l8.74-36.38c8.67-.76,17.02-2.17,25.2-4.35l20.36,30.77h0Z"
         id="path79" />
    </clipPath>
    <clipPath
       id="clippath-26">
      <path
         class="cls-74"
         d="m498,344.98c-9.34-10.13-21.69-19.4-34.74-25.09-7.25,8.54-15.32,14.75-26.3,21.47,3.14,13.35,10.45,27.14,19,39.39l-10.62-35.88c7.13-4.99,13.65-10.39,19.65-16.36l33.02,16.47h0Z"
         id="path82" />
    </clipPath>
    <clipPath
       id="clippath-27">
      <path
         class="cls-74"
         d="m535.48,266.79c-13.16-4.1-28.48-5.95-42.63-4.36-2,11.02-5.89,20.44-12.04,31.74,9.4,9.99,22.62,18.27,36.14,24.61l-27.14-25.76c3.67-7.89,6.63-15.83,8.83-23.99l36.83-2.25h0Z"
         id="path85" />
    </clipPath>
    <clipPath
       id="clippath-28">
      <path
         class="cls-74"
         d="m528.81,180.21c-13.44,3.03-27.64,9.08-39.1,17.54,3.77,10.55,5.11,20.64,5.44,33.51,13.14,3.95,28.73,4.52,43.61,3.24l-36.38-8.74c-.76-8.67-2.17-17.02-4.35-25.2l30.77-20.36h0Z"
         id="path88" />
    </clipPath>
    <clipPath
       id="clippath-29">
      <path
         class="cls-74"
         d="m599.25,287.59c-7.27-1.85-14.77-2.63-22.27-2.33l-2.11,19.99c-7.52.7-14.83,2.87-21.51,6.39l-12.68-15.59c-6.45,3.83-12.31,8.58-17.39,14.1l12.64,15.63c-4.83,5.81-8.46,12.51-10.7,19.73l-19.99-2.06c-1.85,7.27-2.63,14.77-2.33,22.27l19.99,2.11c.7,7.52,2.87,14.83,6.39,21.51l-15.59,12.68c3.83,6.45,8.58,12.31,14.1,17.39l15.63-12.64c5.81,4.83,12.51,8.46,19.73,10.69l-2.06,19.99c7.27,1.85,14.77,2.63,22.27,2.33l2.11-19.99c7.52-.7,14.83-2.87,21.51-6.39l12.68,15.59c6.45-3.83,12.31-8.58,17.39-14.1l-12.64-15.63c4.83-5.81,8.46-12.51,10.7-19.73l19.99,2.06c1.85-7.27,2.63-14.77,2.33-22.27l-19.99-2.11c-.7-7.52-2.87-14.83-6.39-21.51l15.59-12.68c-3.83-6.45-8.58-12.31-14.1-17.39l-15.63,12.64c-5.81-4.83-12.51-8.46-19.73-10.69l2.06-19.99h0Zm-15.3,38.71c19.99,2.09,34.53,20.01,32.44,40s-20.01,34.53-40,32.44c-19.99-2.09-34.53-20.01-32.44-40,2.09-19.99,20.01-34.53,40-32.44h0Z"
         id="path91" />
    </clipPath>
    <clipPath
       id="clippath-30">
      <path
         class="cls-74"
         d="m599.25,287.59c-7.27-1.85-14.77-2.63-22.27-2.33l-2.11,19.99c-7.52.7-14.83,2.87-21.51,6.39l-12.68-15.59c-6.45,3.83-12.31,8.58-17.39,14.1l12.64,15.63c-4.83,5.81-8.46,12.51-10.7,19.73l-19.99-2.06c-1.85,7.27-2.63,14.77-2.33,22.27l19.99,2.11c.7,7.52,2.87,14.83,6.39,21.51l-15.59,12.68c3.83,6.45,8.58,12.31,14.1,17.39l15.63-12.64c5.81,4.83,12.51,8.46,19.73,10.69l-2.06,19.99c7.27,1.85,14.77,2.63,22.27,2.33l2.11-19.99c7.52-.7,14.83-2.87,21.51-6.39l12.68,15.59c6.45-3.83,12.31-8.58,17.39-14.1l-12.64-15.63c4.83-5.81,8.46-12.51,10.7-19.73l19.99,2.06c1.85-7.27,2.63-14.77,2.33-22.27l-19.99-2.11c-.7-7.52-2.87-14.83-6.39-21.51l15.59-12.68c-3.83-6.45-8.58-12.31-14.1-17.39l-15.63,12.64c-5.81-4.83-12.51-8.46-19.73-10.69l2.06-19.99h0Zm-15.3,38.71c19.99,2.09,34.53,20.01,32.44,40s-20.01,34.53-40,32.44c-19.99-2.09-34.53-20.01-32.44-40,2.09-19.99,20.01-34.53,40-32.44h0Z"
         id="path94" />
    </clipPath>
    <clipPath
       id="clippath-31">
      <path
         class="cls-74"
         d="m584.39,321.08c23.05,2.41,39.81,23.08,37.41,46.13s-23.08,39.81-46.13,37.41c-23.05-2.41-39.81-23.08-37.41-46.13,2.41-23.05,23.08-39.81,46.13-37.41h0Z"
         id="path97" />
    </clipPath>
    <clipPath
       id="clippath-32">
      <path
         class="cls-74"
         d="m646.68,323c-7.8,2.16-14.91,6.88-20.33,13.3,3.51,6.35,6.22,14.52,7.09,23.39,8.05,2.62,16.37,2.64,24.11-.34l-20.13-2.07c-.67-7.86-2.93-14.97-6.36-21.55l15.62-12.73h0Z"
         id="path100" />
    </clipPath>
    <clipPath
       id="clippath-33">
      <path
         class="cls-74"
         d="m599.26,287.55c-3.99,7.04-5.68,15.4-4.97,23.78,6.97,2.01,14.66,5.87,21.55,11.52,7.54-3.85,13.44-9.7,16.8-17.29l-15.7,12.77c-6.03-5.08-12.66-8.52-19.73-10.74l2.04-20.04h0Z"
         id="path103" />
    </clipPath>
    <clipPath
       id="clippath-34">
      <path
         class="cls-74"
         d="m540.6,296.05c2.16,7.8,6.88,14.91,13.3,20.33,6.35-3.51,14.52-6.22,23.39-7.09,2.62-8.05,2.64-16.37-.34-24.11l-2.07,20.13c-7.86.67-14.97,2.93-21.55,6.36l-12.73-15.62h0Z"
         id="path106" />
    </clipPath>
    <clipPath
       id="clippath-35">
      <path
         class="cls-74"
         d="m505.16,343.46c7.04,3.99,15.4,5.68,23.78,4.97,2.01-6.97,5.87-14.66,11.52-21.55-3.85-7.54-9.7-13.44-17.29-16.8l12.77,15.7c-5.08,6.03-8.52,12.66-10.74,19.73l-20.04-2.04h0Z"
         id="path109" />
    </clipPath>
    <clipPath
       id="clippath-36">
      <path
         class="cls-74"
         d="m513.7,401.99c7.8-2.16,14.91-6.88,20.33-13.3-3.51-6.35-6.22-14.52-7.09-23.39-8.05-2.62-16.37-2.64-24.11.34l20.13,2.07c.67,7.86,2.93,14.97,6.36,21.55l-15.62,12.73h0Z"
         id="path112" />
    </clipPath>
    <clipPath
       id="clippath-37">
      <path
         class="cls-74"
         d="m561.13,437.5c3.99-7.04,5.68-15.4,4.97-23.78-6.97-2.01-14.66-5.87-21.55-11.52-7.54,3.85-13.44,9.7-16.8,17.29l15.7-12.77c6.03,5.08,12.66,8.52,19.73,10.74l-2.04,20.04h0Z"
         id="path115" />
    </clipPath>
    <clipPath
       id="clippath-38">
      <path
         class="cls-74"
         d="m619.74,429.07c-2.16-7.8-6.88-14.91-13.3-20.33-6.35,3.51-14.52,6.22-23.39,7.09-2.62,8.05-2.64,16.37.34,24.11l2.07-20.13c7.86-.67,14.97-2.93,21.55-6.36l12.73,15.62h0Z"
         id="path118" />
    </clipPath>
    <clipPath
       id="clippath-39">
      <path
         class="cls-74"
         d="m655.28,381.47c-7.04-3.99-15.4-5.68-23.78-4.97-2.01,6.97-5.87,14.66-11.52,21.55,3.85,7.54,9.7,13.44,17.29,16.8l-12.77-15.7c5.08-6.03,8.52-12.66,10.74-19.73l20.04,2.04h0Z"
         id="path121" />
    </clipPath>
    <clipPath
       id="clippath-40">
      <path
         class="cls-74"
         d="m769.91,358.08c-7.56-1.18-15.19-1.8-22.84-1.87l-3.58,22.91c-8.79.14-17.55,1.15-26.15,3.01l-8.7-21.5c-7.43,1.8-14.73,4.15-21.82,7.01l5.46,22.54c-8.07,3.5-15.78,7.78-23.01,12.79l-16.26-16.53c-6.18,4.51-12.02,9.47-17.47,14.83l13.67,18.73c-6.12,6.32-11.6,13.23-16.36,20.62l-21.35-9.05c-3.98,6.53-7.48,13.35-10.47,20.39l19.79,12.08c-3.23,8.18-5.65,16.66-7.23,25.31l-23.19-.19c-1.18,7.56-1.8,15.19-1.87,22.84l22.91,3.58c.14,8.79,1.15,17.55,3.01,26.15l-21.5,8.7c1.8,7.43,4.15,14.73,7.01,21.82l22.54-5.46c3.5,8.07,7.78,15.78,12.79,23.01l-16.53,16.26c4.51,6.18,9.47,12.02,14.83,17.47l18.73-13.66c6.32,6.12,13.23,11.6,20.62,16.36l-9.05,21.35c6.53,3.98,13.35,7.48,20.39,10.47l12.08-19.79c8.18,3.23,16.66,5.65,25.31,7.23l-.19,23.19c7.56,1.18,15.19,1.8,22.84,1.87l3.58-22.91c8.79-.14,17.55-1.15,26.15-3.01l8.7,21.5c7.43-1.8,14.73-4.15,21.82-7.01l-5.46-22.54c8.07-3.5,15.78-7.78,23.01-12.79l16.26,16.53c6.18-4.51,12.02-9.47,17.47-14.83l-13.66-18.73c6.12-6.32,11.6-13.23,16.36-20.62l21.35,9.05c3.98-6.53,7.48-13.35,10.47-20.39l-19.79-12.08c3.23-8.18,5.65-16.66,7.23-25.31l23.19.19c1.18-7.56,1.8-15.19,1.87-22.84l-22.91-3.58c-.14-8.79-1.15-17.55-3.01-26.15l21.5-8.7c-1.8-7.43-4.15-14.73-7.01-21.82l-22.54,5.46c-3.5-8.07-7.78-15.78-12.79-23.01l16.53-16.26c-4.51-6.18-9.47-12.02-14.83-17.47l-18.73,13.66c-6.32-6.12-13.23-11.6-20.62-16.36l9.05-21.35c-6.53-3.98-13.35-7.48-20.39-10.47l-12.08,19.79c-8.18-3.23-16.66-5.65-25.31-7.23l.19-23.19h0Zm-16.48,60.87c52.11,4.27,90.96,50.04,86.69,102.16-4.27,52.11-50.05,90.96-102.16,86.69-52.11-4.27-90.96-50.05-86.69-102.16s50.05-90.96,102.16-86.69h0Z"
         id="path124" />
    </clipPath>
    <clipPath
       id="clippath-41">
      <path
         class="cls-74"
         d="m769.91,358.08c-7.56-1.18-15.19-1.8-22.84-1.87l-3.58,22.91c-8.79.14-17.55,1.15-26.15,3.01l-8.7-21.5c-7.43,1.8-14.73,4.15-21.82,7.01l5.46,22.54c-8.07,3.5-15.78,7.78-23.01,12.79l-16.26-16.53c-6.18,4.51-12.02,9.47-17.47,14.83l13.67,18.73c-6.12,6.32-11.6,13.23-16.36,20.62l-21.35-9.05c-3.98,6.53-7.48,13.35-10.47,20.39l19.79,12.08c-3.23,8.18-5.65,16.66-7.23,25.31l-23.19-.19c-1.18,7.56-1.8,15.19-1.87,22.84l22.91,3.58c.14,8.79,1.15,17.55,3.01,26.15l-21.5,8.7c1.8,7.43,4.15,14.73,7.01,21.82l22.54-5.46c3.5,8.07,7.78,15.78,12.79,23.01l-16.53,16.26c4.51,6.18,9.47,12.02,14.83,17.47l18.73-13.66c6.32,6.12,13.23,11.6,20.62,16.36l-9.05,21.35c6.53,3.98,13.35,7.48,20.39,10.47l12.08-19.79c8.18,3.23,16.66,5.65,25.31,7.23l-.19,23.19c7.56,1.18,15.19,1.8,22.84,1.87l3.58-22.91c8.79-.14,17.55-1.15,26.15-3.01l8.7,21.5c7.43-1.8,14.73-4.15,21.82-7.01l-5.46-22.54c8.07-3.5,15.78-7.78,23.01-12.79l16.26,16.53c6.18-4.51,12.02-9.47,17.47-14.83l-13.66-18.73c6.12-6.32,11.6-13.23,16.36-20.62l21.35,9.05c3.98-6.53,7.48-13.35,10.47-20.39l-19.79-12.08c3.23-8.18,5.65-16.66,7.23-25.31l23.19.19c1.18-7.56,1.8-15.19,1.87-22.84l-22.91-3.58c-.14-8.79-1.15-17.55-3.01-26.15l21.5-8.7c-1.8-7.43-4.15-14.73-7.01-21.82l-22.54,5.46c-3.5-8.07-7.78-15.78-12.79-23.01l16.53-16.26c-4.51-6.18-9.47-12.02-14.83-17.47l-18.73,13.66c-6.32-6.12-13.23-11.6-20.62-16.36l9.05-21.35c-6.53-3.98-13.35-7.48-20.39-10.47l-12.08,19.79c-8.18-3.23-16.66-5.65-25.31-7.23l.19-23.19h0Zm-16.48,60.87c52.11,4.27,90.96,50.04,86.69,102.16-4.27,52.11-50.05,90.96-102.16,86.69-52.11-4.27-90.96-50.05-86.69-102.16s50.05-90.96,102.16-86.69h0Z"
         id="path127" />
    </clipPath>
    <clipPath
       id="clippath-42">
      <path
         class="cls-74"
         d="m754.82,408.45c58.04,4.76,101.29,55.96,96.51,114.29-4.78,58.32-55.78,101.81-113.83,97.05-58.04-4.76-101.29-55.96-96.51-114.28,4.78-58.32,55.78-101.81,113.83-97.05h0Z"
         id="path130" />
    </clipPath>
    <clipPath
       id="clippath-43">
      <path
         class="cls-74"
         d="m898.59,476.27c-9.01-.37-20.13,1.6-30.35,8.47,2.97,9.36,3.57,18.71,3.04,29.56,11.36,3.1,22.77,2.99,31.88.47l-22.74-3.94c.04-8.84-1.02-17.59-2.8-25.49l20.97-9.07h0Z"
         id="path133" />
    </clipPath>
    <clipPath
       id="clippath-44">
      <path
         class="cls-74"
         d="m872.22,420.33c-8.46,3.14-17.95,9.25-24.73,19.53,6.36,7.48,10.52,15.88,14.22,26.1,11.67-1.53,22.16-6.03,29.59-11.88l-22.49,5.15c-3.37-8.17-7.73-15.83-12.42-22.44l15.84-16.46h0Z"
         id="path136" />
    </clipPath>
    <clipPath
       id="clippath-45">
      <path
         class="cls-74"
         d="m827.23,379.46c-6.63,6.11-13.1,15.37-15.46,27.46,8.72,4.51,15.76,10.7,23.06,18.74,10.22-5.84,18.21-13.99,22.86-22.23l-18.85,13.3c-6.22-6.28-13.16-11.71-20.01-16.04l8.4-21.24h0Z"
         id="path139" />
    </clipPath>
    <clipPath
       id="clippath-46">
      <path
         class="cls-74"
         d="m769.87,358.06c-3.79,8.18-6.23,19.21-3.79,31.28,9.78.83,18.65,3.86,28.48,8.51,7.21-9.31,11.48-19.89,12.63-29.27l-12.34,19.5c-8.15-3.42-16.64-5.79-24.62-7.17l-.35-22.84h0Z"
         id="path142" />
    </clipPath>
    <clipPath
       id="clippath-47">
      <path
         class="cls-74"
         d="m708.57,360.6c-.38,9.01,1.58,20.13,8.44,30.36,9.36-2.97,18.72-3.55,29.57-3.01,3.11-11.36,3.02-22.77.5-31.88l-3.96,22.73c-8.84-.05-17.59,1-25.5,2.77l-9.05-20.97h0Z"
         id="path145" />
    </clipPath>
    <clipPath
       id="clippath-48">
      <path
         class="cls-74"
         d="m653.06,386.49c3.09,8.47,9.14,18.01,19.39,24.84,7.52-6.31,15.94-10.43,26.18-14.07-1.46-11.68-5.9-22.19-11.71-29.66l5.02,22.52c-8.19,3.33-15.87,7.64-22.51,12.3l-16.37-15.93h0Z"
         id="path148" />
    </clipPath>
    <clipPath
       id="clippath-49">
      <path
         class="cls-74"
         d="m611.24,431.29c6.07,6.67,15.29,13.19,27.36,15.63,4.56-8.69,10.8-15.69,18.89-22.95-5.78-10.26-13.88-18.3-22.08-23l13.19,18.94c-6.32,6.18-11.79,13.09-16.16,19.91l-21.19-8.53h0Z"
         id="path151" />
    </clipPath>
    <clipPath
       id="clippath-50">
      <path
         class="cls-74"
         d="m590.29,489.28c8.16,3.85,19.17,6.36,31.26,4.01.9-9.78,3.99-18.63,8.7-28.42-9.26-7.27-19.81-11.62-29.19-12.83l19.41,12.47c-3.48,8.13-5.9,16.6-7.34,24.57l-22.84.2h0Z"
         id="path154" />
    </clipPath>
    <clipPath
       id="clippath-51">
      <path
         class="cls-74"
         d="m592.9,550.53c9.01.44,20.14-1.44,30.42-8.23-2.9-9.38-3.43-18.74-2.81-29.59-11.33-3.19-22.75-3.17-31.88-.71l22.71,4.11c-.11,8.84.88,17.6,2.6,25.52l-21.03,8.91h0Z"
         id="path157" />
    </clipPath>
    <clipPath
       id="clippath-52">
      <path
         class="cls-74"
         d="m618.79,606.02c8.47-3.09,18-9.15,24.83-19.41-6.32-7.52-10.44-15.94-14.09-26.17-11.68,1.47-22.19,5.92-29.65,11.73l22.52-5.03c3.33,8.19,7.65,15.87,12.31,22.5l-15.92,16.38h0Z"
         id="path160" />
    </clipPath>
    <clipPath
       id="clippath-53">
      <path
         class="cls-74"
         d="m663.89,647.7c6.68-6.05,13.23-15.26,15.7-27.32-8.68-4.59-15.67-10.84-22.9-18.94-10.27,5.75-18.33,13.83-23.06,22.02l18.97-13.14c6.17,6.33,13.06,11.82,19.87,16.21l-8.59,21.17h0Z"
         id="path163" />
    </clipPath>
    <clipPath
       id="clippath-54">
      <path
         class="cls-74"
         d="m721.39,669.01c3.86-8.15,6.38-19.16,4.04-31.25-9.78-.91-18.62-4.01-28.41-8.73-7.28,9.25-11.64,19.8-12.86,29.18l12.49-19.4c8.12,3.49,16.59,5.92,24.57,7.37l.18,22.84h0Z"
         id="path166" />
    </clipPath>
    <clipPath
       id="clippath-55">
      <path
         class="cls-74"
         d="m782.9,666.61c.43-9.01-1.48-20.14-8.28-30.4-9.38,2.92-18.73,3.46-29.58,2.86-3.17,11.34-3.13,22.75-.66,31.88l4.07-22.71c8.84.1,17.59-.91,25.51-2.64l8.94,21.02h0Z"
         id="path169" />
    </clipPath>
    <clipPath
       id="clippath-56">
      <path
         class="cls-74"
         d="m838.88,640.66c-3.08-8.48-9.12-18.02-19.36-24.86-7.53,6.31-15.95,10.41-26.2,14.04,1.44,11.68,5.87,22.2,11.67,29.67l-4.99-22.53c8.19-3.32,15.88-7.62,22.52-12.27l16.35,15.95h0Z"
         id="path172" />
    </clipPath>
    <clipPath
       id="clippath-57">
      <path
         class="cls-74"
         d="m880.28,595.59c-6.08-6.66-15.32-13.16-27.39-15.58-4.55,8.7-10.76,15.72-18.84,22.98,5.8,10.25,13.92,18.27,22.13,22.96l-13.22-18.91c6.31-6.2,11.76-13.11,16.12-19.95l21.21,8.49h0Z"
         id="path175" />
    </clipPath>
    <clipPath
       id="clippath-58">
      <path
         class="cls-74"
         d="m901.37,537.67c-8.18-3.8-19.2-6.25-31.28-3.83-.85,9.78-3.89,18.65-8.54,28.47,9.3,7.22,19.88,11.51,29.26,12.67l-19.48-12.36c3.43-8.15,5.81-16.63,7.2-24.62l22.84-.33h0Z"
         id="path178" />
    </clipPath>
    <clipPath
       id="clippath-59">
      <path
         class="cls-74"
         d="m934.62,174.32c-6.63-1.51-13.37-2.46-20.15-2.86l-7.14,25.41c-5.38,0-10.75.45-16.05,1.34l-11.27-23.87c-6.62,1.52-13.11,3.58-19.39,6.17l4.59,25.99c-4.84,2.34-9.48,5.07-13.88,8.18l-20.51-16.61c-5.31,4.24-10.26,8.91-14.8,13.97l15.41,21.42c-3.35,4.21-6.35,8.68-8.95,13.39l-25.69-6.07c-2.95,6.12-5.38,12.48-7.27,19.01l23.18,12.62c-1.19,5.24-1.95,10.58-2.26,15.95l-25.77,5.68c0,6.8.57,13.58,1.7,20.28l26.36,1.31c1.2,5.24,2.83,10.38,4.88,15.35l-20.76,16.3c2.95,6.12,6.41,11.99,10.33,17.54l24.32-10.26c3.36,4.2,7.05,8.12,11.06,11.71l-11.63,23.69c5.32,4.23,10.97,8.02,16.92,11.32l17.46-19.79c4.85,2.33,9.88,4.25,15.04,5.75l-.2,26.39c6.63,1.51,13.37,2.46,20.15,2.86l7.14-25.41c5.38,0,10.75-.45,16.05-1.34l11.27,23.87c6.62-1.52,13.11-3.58,19.4-6.17l-4.59-25.99c4.84-2.34,9.48-5.07,13.88-8.17l20.51,16.61c5.31-4.24,10.26-8.91,14.8-13.97l-15.41-21.42c3.35-4.21,6.35-8.68,8.95-13.39l25.69,6.07c2.95-6.12,5.38-12.48,7.27-19.01l-23.18-12.62c1.19-5.24,1.95-10.58,2.26-15.95l25.77-5.68c0-6.8-.57-13.58-1.7-20.28l-26.36-1.31c-1.2-5.24-2.83-10.38-4.88-15.35l20.76-16.3c-2.95-6.12-6.41-11.99-10.33-17.54l-24.32,10.26c-3.36-4.2-7.05-8.12-11.06-11.71l11.63-23.69c-5.32-4.23-10.97-8.02-16.92-11.32l-17.46,19.79c-4.85-2.33-9.88-4.25-15.04-5.75l.2-26.39h0Zm-17.6,51.64c37.53,5.32,63.69,40.11,58.37,77.65-5.32,37.53-40.11,63.69-77.65,58.37-37.53-5.32-63.69-40.11-58.37-77.65,5.32-37.53,40.11-63.69,77.65-58.37h0Z"
         id="path181" />
    </clipPath>
    <clipPath
       id="clippath-60">
      <path
         class="cls-74"
         d="m934.62,174.32c-6.63-1.51-13.37-2.46-20.15-2.86l-7.14,25.41c-5.38,0-10.75.45-16.05,1.34l-11.27-23.87c-6.62,1.52-13.11,3.58-19.39,6.17l4.59,25.99c-4.84,2.34-9.48,5.07-13.88,8.18l-20.51-16.61c-5.31,4.24-10.26,8.91-14.8,13.97l15.41,21.42c-3.35,4.21-6.35,8.68-8.95,13.39l-25.69-6.07c-2.95,6.12-5.38,12.48-7.27,19.01l23.18,12.62c-1.19,5.24-1.95,10.58-2.26,15.95l-25.77,5.68c0,6.8.57,13.58,1.7,20.28l26.36,1.31c1.2,5.24,2.83,10.38,4.88,15.35l-20.76,16.3c2.95,6.12,6.41,11.99,10.33,17.54l24.32-10.26c3.36,4.2,7.05,8.12,11.06,11.71l-11.63,23.69c5.32,4.23,10.97,8.02,16.92,11.32l17.46-19.79c4.85,2.33,9.88,4.25,15.04,5.75l-.2,26.39c6.63,1.51,13.37,2.46,20.15,2.86l7.14-25.41c5.38,0,10.75-.45,16.05-1.34l11.27,23.87c6.62-1.52,13.11-3.58,19.4-6.17l-4.59-25.99c4.84-2.34,9.48-5.07,13.88-8.17l20.51,16.61c5.31-4.24,10.26-8.91,14.8-13.97l-15.41-21.42c3.35-4.21,6.35-8.68,8.95-13.39l25.69,6.07c2.95-6.12,5.38-12.48,7.27-19.01l-23.18-12.62c1.19-5.24,1.95-10.58,2.26-15.95l25.77-5.68c0-6.8-.57-13.58-1.7-20.28l-26.36-1.31c-1.2-5.24-2.83-10.38-4.88-15.35l20.76-16.3c-2.95-6.12-6.41-11.99-10.33-17.54l-24.32,10.26c-3.36-4.2-7.05-8.12-11.06-11.71l11.63-23.69c-5.32-4.23-10.97-8.02-16.92-11.32l-17.46,19.79c-4.85-2.33-9.88-4.25-15.04-5.75l.2-26.39h0Zm-17.6,51.64c37.53,5.32,63.69,40.11,58.37,77.65-5.32,37.53-40.11,63.69-77.65,58.37-37.53-5.32-63.69-40.11-58.37-77.65,5.32-37.53,40.11-63.69,77.65-58.37h0Z"
         id="path184" />
    </clipPath>
    <clipPath
       id="clippath-61">
      <path
         class="cls-74"
         d="m912.51,219.31c40.94,2.97,71.76,38.75,68.79,79.85-2.98,41.1-38.64,72.06-79.58,69.1-40.94-2.97-71.76-38.75-68.79-79.85,2.98-41.1,38.64-72.06,79.58-69.1h0Z"
         id="path187" />
    </clipPath>
    <clipPath
       id="clippath-62">
      <path
         class="cls-74"
         d="m1018.26,240.4c-9.22,2.33-18.26,6.13-26.76,14.5,3.44,5.35,6.08,15.79,6.95,22.29,10.99.98,21.01-.45,30.41-3.45l-26.17-1.89c-.96-5.17-2.45-10.08-4.58-14.66l20.15-16.79h0Z"
         id="path190" />
    </clipPath>
    <clipPath
       id="clippath-63">
      <path
         class="cls-74"
         d="m984.04,197.67c-7.25,6.15-13.7,13.54-17.65,24.79,5.44,3.29,12.41,11.5,16.05,16.96,10.3-3.95,18.67-9.65,25.79-16.47l-24.33,9.81c-3.14-4.22-6.63-7.98-10.56-11.15l10.7-23.94h0Z"
         id="path193" />
    </clipPath>
    <clipPath
       id="clippath-64">
      <path
         class="cls-74"
         d="m934.54,174.07c-3.8,8.72-6.34,18.19-4.93,30.03,6.33.56,16.2,4.87,21.88,8.16,7.51-8.08,12.52-16.88,15.91-26.15l-17.53,19.52c-4.68-2.41-9.47-4.24-14.39-5.36l-.93-26.21h0Z"
         id="path196" />
    </clipPath>
    <clipPath
       id="clippath-65">
      <path
         class="cls-74"
         d="m879.87,174.46c.41,9.5,2.28,19.13,8.75,29.15,5.94-2.27,16.7-2.74,23.24-2.27,3.2-10.56,3.84-20.66,2.82-30.47l-7.18,25.23c-5.26-.11-10.37.34-15.28,1.5l-12.34-23.14h0Z"
         id="path199" />
    </clipPath>
    <clipPath
       id="clippath-66">
      <path
         class="cls-74"
         d="m830.48,197.93c4.32,8.47,10.02,16.45,20.06,22.88,4.46-4.53,14.05-9.43,20.2-11.72-1.47-10.93-5.09-20.39-10.1-28.89l3.95,25.94c-4.83,2.08-9.29,4.62-13.28,7.71l-20.84-15.93h0Z"
         id="path202" />
    </clipPath>
    <clipPath
       id="clippath-67">
      <path
         class="cls-74"
         d="m796.4,240.74c7.61,5.7,16.25,10.34,28.1,11.69,2-6.03,8.45-14.66,12.96-19.42-6.15-9.16-13.56-16.05-21.8-21.48l14.98,21.54c-3.42,4-6.3,8.24-8.51,12.78l-25.73-5.1h0Z"
         id="path205" />
    </clipPath>
    <clipPath
       id="clippath-68">
      <path
         class="cls-74"
         d="m784.24,294.18c9.32,1.88,19.12,2.36,30.39-1.52-.79-6.31,1.34-16.87,3.36-23.11-9.48-5.63-19.14-8.67-28.91-10.03l22.78,13.01c-1.37,5.08-2.15,10.15-2.2,15.2l-25.42,6.44h0Z"
         id="path208" />
    </clipPath>
    <clipPath
       id="clippath-69">
      <path
         class="cls-74"
         d="m796.79,347.49c9.19-2.45,18.18-6.36,26.57-14.84-3.5-5.3-6.28-15.71-7.24-22.2-11-.84-21,.72-30.36,3.84l26.19,1.56c1.03,5.16,2.58,10.05,4.77,14.6l-19.93,17.05h0Z"
         id="path211" />
    </clipPath>
    <clipPath
       id="clippath-70">
      <path
         class="cls-74"
         d="m830.74,390.41c7.29-6.11,13.78-13.46,17.79-24.69-5.42-3.32-12.34-11.58-15.95-17.06-10.32,3.89-18.72,9.54-25.89,16.32l24.39-9.67c3.12,4.24,6.58,8.01,10.5,11.21l-10.84,23.88h0Z"
         id="path214" />
    </clipPath>
    <clipPath
       id="clippath-71">
      <path
         class="cls-74"
         d="m880.18,414.04c3.81-8.71,6.35-18.18,4.95-30.03-6.33-.57-16.2-4.88-21.87-8.18-7.51,8.08-12.52,16.88-15.92,26.14l17.54-19.51c4.68,2.41,9.46,4.25,14.39,5.37l.92,26.21h0Z"
         id="path217" />
    </clipPath>
    <clipPath
       id="clippath-72">
      <path
         class="cls-74"
         d="m935.01,413.98c-.22-9.51-1.9-19.17-8.17-29.32-5.98,2.16-16.75,2.41-23.28,1.81-3.41,10.49-4.24,20.58-3.42,30.41l7.68-25.09c5.26.21,10.37-.14,15.31-1.2l11.88,23.38h0Z"
         id="path220" />
    </clipPath>
    <clipPath
       id="clippath-73">
      <path
         class="cls-74"
         d="m984.58,390.41c-4.31-8.48-10.01-16.46-20.04-22.9-4.46,4.53-14.06,9.41-20.21,11.7,1.46,10.93,5.07,20.39,10.07,28.9l-3.92-25.94c4.83-2.08,9.29-4.61,13.29-7.7l20.82,15.95h0Z"
         id="path223" />
    </clipPath>
    <clipPath
       id="clippath-74">
      <path
         class="cls-74"
         d="m1018.72,347.41c-7.55-5.78-16.14-10.51-27.98-11.98-2.06,6.01-8.6,14.57-13.16,19.29,6.05,9.22,13.4,16.19,21.58,21.7l-14.76-21.69c3.46-3.97,6.38-8.18,8.65-12.69l25.67,5.37h0Z"
         id="path226" />
    </clipPath>
    <clipPath
       id="clippath-75">
      <path
         class="cls-74"
         d="m1030.63,293.86c-9.31-1.92-19.11-2.45-30.4,1.38.76,6.31-1.42,16.86-3.47,23.09,9.46,5.68,19.1,8.76,28.87,10.16l-22.72-13.12c1.39-5.07,2.19-10.14,2.27-15.19l25.45-6.32h0Z"
         id="path229" />
    </clipPath>
    <clipPath
       id="clippath-76">
      <path
         class="cls-74"
         d="m1060.48,378.28c-11.07-2.29-22.41-2.96-33.67-1.99l-6.15,31.13c-8.24,1.57-16.21,4.33-23.65,8.2l-24.1-20.64c-9.45,6.2-17.94,13.75-25.21,22.4l17.66,26.36c-4.72,6.94-8.4,14.52-10.93,22.52l-31.64,2.44c-2.29,11.07-2.96,22.41-1.99,33.67l31.13,6.15c1.57,8.24,4.33,16.21,8.2,23.65l-20.64,24.1c6.2,9.45,13.75,17.94,22.4,25.21l26.36-17.66c6.94,4.72,14.52,8.4,22.52,10.93l2.44,31.64c11.07,2.29,22.41,2.96,33.67,1.99l6.15-31.13c8.24-1.57,16.21-4.33,23.65-8.2l24.1,20.64c9.45-6.2,17.94-13.75,25.21-22.4l-17.66-26.36c4.72-6.94,8.4-14.52,10.93-22.52l31.64-2.44c2.29-11.07,2.96-22.41,1.99-33.67l-31.13-6.15c-1.57-8.24-4.33-16.21-8.2-23.65l20.64-24.1c-6.2-9.45-13.75-17.94-22.4-25.21l-26.36,17.66c-6.94-4.72-14.52-8.4-22.52-10.93l-2.44-31.64h0Zm-20.03,53.16c33.61,1.98,59.28,30.88,57.3,64.49-1.98,33.61-30.88,59.28-64.49,57.3-33.61-1.98-59.28-30.88-57.3-64.49,1.98-33.61,30.88-59.28,64.49-57.3h0Z"
         id="path232" />
    </clipPath>
    <clipPath
       id="clippath-77">
      <path
         class="cls-74"
         d="m1060.48,378.28c-11.07-2.29-22.41-2.96-33.67-1.99l-6.15,31.13c-8.24,1.57-16.21,4.33-23.65,8.2l-24.1-20.64c-9.45,6.2-17.94,13.75-25.21,22.4l17.66,26.36c-4.72,6.94-8.4,14.52-10.93,22.52l-31.64,2.44c-2.29,11.07-2.96,22.41-1.99,33.67l31.13,6.15c1.57,8.24,4.33,16.21,8.2,23.65l-20.64,24.1c6.2,9.45,13.75,17.94,22.4,25.21l26.36-17.66c6.94,4.72,14.52,8.4,22.52,10.93l2.44,31.64c11.07,2.29,22.41,2.96,33.67,1.99l6.15-31.13c8.24-1.57,16.21-4.33,23.65-8.2l24.1,20.64c9.45-6.2,17.94-13.75,25.21-22.4l-17.66-26.36c4.72-6.94,8.4-14.52,10.93-22.52l31.64-2.44c2.29-11.07,2.96-22.41,1.99-33.67l-31.13-6.15c-1.57-8.24-4.33-16.21-8.2-23.65l20.64-24.1c-6.2-9.45-13.75-17.94-22.4-25.21l-26.36,17.66c-6.94-4.72-14.52-8.4-22.52-10.93l-2.44-31.64h0Zm-20.03,53.16c33.61,1.98,59.28,30.88,57.3,64.49-1.98,33.61-30.88,59.28-64.49,57.3-33.61-1.98-59.28-30.88-57.3-64.49,1.98-33.61,30.88-59.28,64.49-57.3h0Z"
         id="path235" />
    </clipPath>
    <clipPath
       id="clippath-78">
      <path
         class="cls-74"
         d="m1134.88,427.66c-11.02,6.13-21.13,13.31-27.43,24.92,4.45,8.54,7.54,18.02,9.22,28.46,12.87,3.82,25.33,3.84,37.51,1.39l-30.87-7.37c-1.98-8.08-4.46-15.12-7.68-21.9l19.25-25.49h0Z"
         id="path238" />
    </clipPath>
    <clipPath
       id="clippath-79">
      <path
         class="cls-74"
         d="m1060.52,377.56c-3.39,12.14-5.39,24.38-1.57,37.02,9.2,2.84,18.11,7.31,26.72,13.46,11.77-6.47,20.54-15.3,27.37-25.69l-26.95,16.77c-7.14-4.27-13.88-7.46-20.97-9.94l-4.59-31.62h0Z"
         id="path241" />
    </clipPath>
    <clipPath
       id="clippath-80">
      <path
         class="cls-74"
         d="m972.77,395.09c6.23,10.96,13.51,21,25.17,27.19,8.5-4.53,17.95-7.7,28.37-9.49,3.7-12.91,3.61-25.36,1.04-37.52l-7.08,30.94c-8.06,2.06-15.08,4.6-21.83,7.89l-25.67-19.02h0Z"
         id="path244" />
    </clipPath>
    <clipPath
       id="clippath-81">
      <path
         class="cls-74"
         d="m922.21,468.62c12.14,3.39,24.38,5.39,37.02,1.57,2.84-9.2,7.31-18.11,13.45-26.72-6.47-11.76-15.31-20.54-25.69-27.36l16.77,26.95c-4.27,7.14-7.46,13.89-9.94,20.98l-31.62,4.59h0Z"
         id="path247" />
    </clipPath>
    <clipPath
       id="clippath-82">
      <path
         class="cls-74"
         d="m939.18,556.85c10.97-6.21,21.03-13.47,27.24-25.12-4.51-8.51-7.67-17.96-9.43-28.39-12.9-3.72-25.35-3.66-37.52-1.12l30.93,7.14c2.04,8.06,4.57,15.09,7.84,21.85l-19.07,25.63h0Z"
         id="path250" />
    </clipPath>
    <clipPath
       id="clippath-83">
      <path
         class="cls-74"
         d="m1013.26,607.58c3.56-12.09,5.73-24.3,2.08-37-9.16-2.97-18.01-7.56-26.53-13.82-11.85,6.3-20.75,15.02-27.72,25.31l27.18-16.4c7.08,4.37,13.78,7.65,20.84,10.23l4.15,31.68h0Z"
         id="path253" />
    </clipPath>
    <clipPath
       id="clippath-84">
      <path
         class="cls-74"
         d="m1101.57,590.4c-6.08-11.04-13.22-21.18-24.79-27.54-8.56,4.41-18.05,7.45-28.5,9.09-3.88,12.85-3.96,25.31-1.56,37.5l7.51-30.84c8.09-1.94,15.14-4.39,21.94-7.58l25.41,19.37h0Z"
         id="path256" />
    </clipPath>
    <clipPath
       id="clippath-85">
      <path
         class="cls-74"
         d="m1152.05,515.88c-12.1-3.53-24.32-5.68-37-2-2.95,9.17-7.52,18.02-13.77,26.56,6.33,11.84,15.06,20.72,25.37,27.67l-16.45-27.14c4.36-7.09,7.63-13.8,10.18-20.86l31.67-4.22h0Z"
         id="path259" />
    </clipPath>
    <clipPath
       id="clippath-86">
      <path
         class="cls-74"
         d="m1262.76,247.41c-7.29-4.4-15.07-7.93-23.18-10.53l-15.89,28.79c-5.88-1.37-11.89-2.04-17.92-2.02l-9.09-31.6c-8.48.73-16.86,2.44-24.94,5.11l4.07,32.63c-5.56,2.35-10.82,5.34-15.69,8.9l-25.93-20.23c-6.44,5.58-12.2,11.89-17.18,18.8l22.47,24.01c-3.11,5.17-5.62,10.68-7.46,16.42l-32.86-1.12c-1.93,8.29-2.88,16.79-2.85,25.3l32.29,6.21c.52,6.01,1.73,11.94,3.62,17.67l-27.25,18.41c3.32,7.84,7.53,15.27,12.57,22.14l29.78-13.96c3.95,4.56,8.42,8.64,13.32,12.17l-11.22,30.91c7.29,4.4,15.07,7.93,23.18,10.53l15.89-28.79c5.88,1.37,11.89,2.04,17.92,2.02l9.09,31.6c8.48-.73,16.86-2.44,24.94-5.11l-4.07-32.63c5.56-2.35,10.82-5.34,15.69-8.9l25.93,20.23c6.43-5.58,12.2-11.89,17.18-18.8l-22.47-24.01c3.11-5.17,5.62-10.68,7.46-16.42l32.86,1.12c1.93-8.29,2.88-16.79,2.85-25.3l-32.29-6.21c-.52-6.01-1.73-11.94-3.62-17.67l27.25-18.41c-3.32-7.84-7.53-15.27-12.57-22.14l-29.78,13.96c-3.95-4.56-8.42-8.64-13.32-12.17l11.22-30.91h0Zm-35.33,47.02c25.93,11.78,37.43,42.39,25.65,68.33-11.78,25.93-42.39,37.43-68.33,25.65-25.93-11.78-37.43-42.39-25.65-68.33,11.78-25.93,42.39-37.43,68.33-25.65h0Z"
         id="path262" />
    </clipPath>
    <clipPath
       id="clippath-87">
      <path
         class="cls-74"
         d="m1262.76,247.41c-7.29-4.4-15.07-7.93-23.18-10.53l-15.89,28.79c-5.88-1.37-11.89-2.04-17.92-2.02l-9.09-31.6c-8.48.73-16.86,2.44-24.94,5.11l4.07,32.63c-5.56,2.35-10.82,5.34-15.69,8.9l-25.93-20.23c-6.44,5.58-12.2,11.89-17.18,18.8l22.47,24.01c-3.11,5.17-5.62,10.68-7.46,16.42l-32.86-1.12c-1.93,8.29-2.88,16.79-2.85,25.3l32.29,6.21c.52,6.01,1.73,11.94,3.62,17.67l-27.25,18.41c3.32,7.84,7.53,15.27,12.57,22.14l29.78-13.96c3.95,4.56,8.42,8.64,13.32,12.17l-11.22,30.91c7.29,4.4,15.07,7.93,23.18,10.53l15.89-28.79c5.88,1.37,11.89,2.04,17.92,2.02l9.09,31.6c8.48-.73,16.86-2.44,24.94-5.11l-4.07-32.63c5.56-2.35,10.82-5.34,15.69-8.9l25.93,20.23c6.43-5.58,12.2-11.89,17.18-18.8l-22.47-24.01c3.11-5.17,5.62-10.68,7.46-16.42l32.86,1.12c1.93-8.29,2.88-16.79,2.85-25.3l-32.29-6.21c-.52-6.01-1.73-11.94-3.62-17.67l27.25-18.41c-3.32-7.84-7.53-15.27-12.57-22.14l-29.78,13.96c-3.95-4.56-8.42-8.64-13.32-12.17l11.22-30.91h0Zm-35.33,47.02c25.93,11.78,37.43,42.39,25.65,68.33-11.78,25.93-42.39,37.43-68.33,25.65-25.93-11.78-37.43-42.39-25.65-68.33,11.78-25.93,42.39-37.43,68.33-25.65h0Z"
         id="path265" />
    </clipPath>
    <clipPath
       id="clippath-88">
      <path
         class="cls-74"
         d="m1210.19,283.58c31.92,2.1,56.13,29.72,54.03,61.64s-29.72,56.13-61.64,54.03-56.13-29.72-54.03-61.64,29.72-56.13,61.64-54.03h0Z"
         id="path268" />
    </clipPath>
    <clipPath
       id="clippath-89">
      <path
         class="cls-74"
         d="m1307.63,298.42c-11.12,2.27-23.81,8.73-34.94,17.66,2.94,6.88,5.55,14.84,5.85,23.66,13.02,3.25,26.11,3.43,38.21,1.37l-31.75-7.57-3.54-16.13,26.16-18.98h0Z"
         id="path271" />
    </clipPath>
    <clipPath
       id="clippath-90">
      <path
         class="cls-74"
         d="m1263.18,246.65c-7.64,8.4-14.06,21.11-17.77,34.88,6.43,3.82,13.24,8.7,18.69,15.64,12.43-5.07,23.1-12.65,31.65-21.46l-30.09,12.63-12.38-10.93,9.91-30.76h0Z"
         id="path274" />
    </clipPath>
    <clipPath
       id="clippath-91">
      <path
         class="cls-74"
         d="m1196.73,231.12c-1.2,11.29,1.12,25.34,6.26,38.64,7.45-.71,15.82-.8,24.32,1.58,7.04-11.43,11.17-23.85,12.87-36.01l-16.83,27.97-16.45-1.51-10.17-30.67h0Z"
         id="path277" />
    </clipPath>
    <clipPath
       id="clippath-92">
      <path
         class="cls-74"
         d="m1133.72,258.01c5.72,9.81,15.92,19.75,27.94,27.42,5.57-4.99,12.27-10.02,20.53-13.14-1.1-13.38-5.13-25.83-10.97-36.63l3.02,32.5-14.15,8.53-26.37-18.68h0Z"
         id="path280" />
    </clipPath>
    <clipPath
       id="clippath-93">
      <path
         class="cls-74"
         d="m1099.04,316.55c10.4,4.56,24.49,6.6,38.72,5.73,1.57-7.31,4.02-15.32,8.87-22.7-8.76-10.17-19.35-17.87-30.42-23.16l21.56,24.5-6.42,15.22-32.31.41h0Z"
         id="path283" />
    </clipPath>
    <clipPath
       id="clippath-94">
      <path
         class="cls-74"
         d="m1104.58,384.33c11.09-2.45,23.67-9.12,34.64-18.22-3.05-6.83-5.79-14.75-6.23-23.56-13.07-3.04-26.16-3.01-38.23-.75l31.87,7.06,3.8,16.08-25.85,19.4h0Z"
         id="path286" />
    </clipPath>
    <clipPath
       id="clippath-95">
      <path
         class="cls-74"
         d="m1149.22,435.96c7.58-8.45,13.91-21.2,17.53-35-6.46-3.78-13.3-8.61-18.8-15.51-12.39,5.15-23.01,12.8-31.5,21.68l30.01-12.84,12.46,10.85-9.7,30.83h0Z"
         id="path289" />
    </clipPath>
    <clipPath
       id="clippath-96">
      <path
         class="cls-74"
         d="m1215.82,451.15c1.2-11.29-1.11-25.34-6.25-38.64-7.45.71-15.82.8-24.32-1.59-7.04,11.43-11.18,23.84-12.88,36l16.84-27.96,16.45,1.52,10.16,30.68h0Z"
         id="path292" />
    </clipPath>
    <clipPath
       id="clippath-97">
      <path
         class="cls-74"
         d="m1278.34,424.59c-5.59-9.88-15.64-19.97-27.56-27.8-5.64,4.91-12.41,9.85-20.71,12.85.92,13.39,4.77,25.9,10.46,36.78l-2.56-32.54,14.26-8.33,26.1,19.05h0Z"
         id="path295" />
    </clipPath>
    <clipPath
       id="clippath-98">
      <path
         class="cls-74"
         d="m1313.58,366.29c-10.34-4.7-24.4-6.92-38.65-6.24-1.67,7.29-4.22,15.27-9.17,22.58,8.63,10.28,19.11,18.12,30.12,23.56l-21.24-24.78,6.62-15.13h32.32Z"
         id="path298" />
    </clipPath>
    <clipPath
       id="clippath-99">
      <path
         class="cls-74"
         d="m1339.64,402.89c-7.06-1.24-14.23-1.76-21.4-1.55l-6.25,30.52c-9.86,1.23-19.37,4.39-28.01,9.29l-23.26-20.73c-5.87,4.12-11.31,8.82-16.23,14.04l17.16,26c-6.1,7.84-10.6,16.8-13.23,26.38l-31.1,1.78c-1.24,7.06-1.76,14.23-1.55,21.4l30.52,6.25c1.23,9.86,4.39,19.37,9.29,28.01l-20.73,23.26c4.12,5.87,8.82,11.31,14.04,16.23l26-17.17c7.84,6.1,16.8,10.6,26.38,13.23l1.78,31.1c7.06,1.24,14.23,1.76,21.4,1.55l6.25-30.52c9.86-1.23,19.37-4.39,28.01-9.29l23.26,20.73c5.87-4.12,11.31-8.82,16.23-14.04l-17.17-26c6.1-7.84,10.6-16.8,13.23-26.38l31.1-1.78c1.24-7.06,1.76-14.23,1.55-21.4l-30.52-6.25c-1.23-9.86-4.39-19.37-9.29-28.01l20.73-23.26c-4.12-5.87-8.82-11.31-14.04-16.23l-26,17.17c-7.84-6.1-16.8-10.6-26.38-13.23l-1.79-31.1h0Zm-14.77,55.48c26.79,1.94,46.97,25.27,45.03,52.06s-25.27,46.97-52.06,45.03-46.97-25.27-45.03-52.06,25.27-46.97,52.06-45.03h0Z"
         id="path301" />
    </clipPath>
    <clipPath
       id="clippath-100">
      <path
         class="cls-74"
         d="m1339.64,402.89c-7.06-1.24-14.23-1.76-21.4-1.55l-6.25,30.52c-9.86,1.23-19.37,4.39-28.01,9.29l-23.26-20.73c-5.87,4.12-11.31,8.82-16.23,14.04l17.16,26c-6.1,7.84-10.6,16.8-13.23,26.38l-31.1,1.78c-1.24,7.06-1.76,14.23-1.55,21.4l30.52,6.25c1.23,9.86,4.39,19.37,9.29,28.01l-20.73,23.26c4.12,5.87,8.82,11.31,14.04,16.23l26-17.17c7.84,6.1,16.8,10.6,26.38,13.23l1.78,31.1c7.06,1.24,14.23,1.76,21.4,1.55l6.25-30.52c9.86-1.23,19.37-4.39,28.01-9.29l23.26,20.73c5.87-4.12,11.31-8.82,16.23-14.04l-17.17-26c6.1-7.84,10.6-16.8,13.23-26.38l31.1-1.78c1.24-7.06,1.76-14.23,1.55-21.4l-30.52-6.25c-1.23-9.86-4.39-19.37-9.29-28.01l20.73-23.26c-4.12-5.87-8.82-11.31-14.04-16.23l-26,17.17c-7.84-6.1-16.8-10.6-26.38-13.23l-1.79-31.1h0Zm-14.77,55.48c26.79,1.94,46.97,25.27,45.03,52.06s-25.27,46.97-52.06,45.03-46.97-25.27-45.03-52.06,25.27-46.97,52.06-45.03h0Z"
         id="path304" />
    </clipPath>
    <clipPath
       id="clippath-101">
      <path
         class="cls-74"
         d="m1325.18,453.48c29.49,2.14,51.7,27.81,49.57,57.31-2.14,29.49-27.81,51.7-57.31,49.57-29.49-2.14-51.7-27.81-49.57-57.31,2.14-29.49,27.81-51.7,57.31-49.57h0Z"
         id="path307" />
    </clipPath>
    <clipPath
       id="clippath-102">
      <path
         class="cls-74"
         d="m1408.75,445.79c-10.04,5.65-20.7,14.43-28.37,24.57,5.96,8.38,9.8,16.53,10.58,30.2,12.44,3.44,24.64,3.81,36.71,3.29-9.34-3.04-19.6-5.89-28.13-9.83l-6.47-22.39,15.68-25.83h0Z"
         id="path310" />
    </clipPath>
    <clipPath
       id="clippath-103">
      <path
         class="cls-74"
         d="m1339.62,402.12c-3.09,11.1-4.39,24.85-2.62,37.43,10.14,1.69,18.63,4.73,28.86,13.82,11.21-6.38,20.09-14.77,28.24-23.68-8.74,4.47-18.01,9.73-26.82,12.99l-20.43-11.22-7.23-29.34h0Z"
         id="path313" />
    </clipPath>
    <clipPath
       id="clippath-104">
      <path
         class="cls-74"
         d="m1260.27,419.96c5.65,10.05,14.43,20.7,24.57,28.37,8.38-5.96,16.53-9.8,30.2-10.58,3.44-12.44,3.81-24.64,3.29-36.71-3.04,9.34-5.89,19.6-9.83,28.13l-22.39,6.47-25.83-15.68h0Z"
         id="path316" />
    </clipPath>
    <clipPath
       id="clippath-105">
      <path
         class="cls-74"
         d="m1216.64,488.57c11.1,3.11,24.84,4.43,37.43,2.69,1.71-10.14,4.76-18.62,13.87-28.84-6.36-11.23-14.73-20.11-23.63-28.28,4.45,8.75,9.7,18.03,12.94,26.84l-11.26,20.41-29.35,7.18h0Z"
         id="path319" />
    </clipPath>
    <clipPath
       id="clippath-106">
      <path
         class="cls-74"
         d="m1234.2,568.06c10.05-5.65,20.7-14.43,28.37-24.57-5.96-8.38-9.8-16.53-10.58-30.2-12.44-3.44-24.64-3.81-36.71-3.29,9.34,3.04,19.6,5.89,28.13,9.83l6.47,22.39-15.68,25.83h0Z"
         id="path322" />
    </clipPath>
    <clipPath
       id="clippath-107">
      <path
         class="cls-74"
         d="m1302.93,611.96c3.11-11.1,4.43-24.84,2.69-37.43-10.14-1.71-18.62-4.76-28.84-13.87-11.23,6.36-20.11,14.73-28.28,23.63,8.75-4.45,18.03-9.7,26.84-12.94l20.41,11.26,7.18,29.35h0Z"
         id="path325" />
    </clipPath>
    <clipPath
       id="clippath-108">
      <path
         class="cls-74"
         d="m1382.65,594.51c-5.65-10.05-14.43-20.7-24.57-28.37-8.38,5.96-16.53,9.8-30.2,10.58-3.44,12.44-3.81,24.64-3.29,36.71,3.04-9.34,5.89-19.6,9.83-28.13l22.39-6.47,25.83,15.68h0Z"
         id="path328" />
    </clipPath>
    <clipPath
       id="clippath-109">
      <path
         class="cls-74"
         d="m1427,525.06c-11.1-3.11-24.84-4.43-37.43-2.69-1.71,10.14-4.76,18.62-13.87,28.84,6.36,11.23,14.73,20.11,23.63,28.28-4.45-8.75-9.7-18.03-12.94-26.84l11.26-20.41,29.35-7.18h0Z"
         id="path331" />
    </clipPath>
    <clipPath
       id="clippath-110">
      <path
         class="cls-74"
         d="m1521,575.09c-4.03-6.75-9.02-12.88-14.82-18.19l-16.38,13.35c-6.12-5.05-13.18-8.84-20.77-11.16l2.18-20.98c-7.64-1.91-15.51-2.7-23.39-2.34l-2.18,20.98c-7.92.76-15.61,3.08-22.64,6.81l-13.3-16.32c-6.77,4.05-12.92,9.06-18.25,14.88l13.3,16.32c-5.08,6.13-8.9,13.2-11.24,20.8l-20.99-2.1c-1.94,7.64-2.76,15.51-2.43,23.38l20.99,2.1c.73,7.91,3.02,15.59,6.74,22.6l-16.38,13.35c4.03,6.75,9.02,12.88,14.82,18.19l16.38-13.35c6.12,5.05,13.18,8.84,20.77,11.16l-2.18,20.98c7.64,1.91,15.51,2.7,23.39,2.34l2.18-20.98c7.92-.76,15.61-3.08,22.64-6.81l13.3,16.32c6.77-4.05,12.92-9.06,18.25-14.88l-13.3-16.32c5.08-6.13,8.9-13.2,11.24-20.8l20.99,2.1c1.94-7.64,2.76-15.51,2.43-23.38l-20.98-2.1c-.73-7.91-3.02-15.59-6.74-22.6l16.38-13.35h0Zm-40.41,17.8c13.16,16.15,10.69,39.99-5.52,53.2-16.21,13.21-40.06,10.82-53.22-5.33-13.16-16.15-10.69-39.99,5.52-53.2,16.21-13.21,40.05-10.82,53.22,5.33h0Z"
         id="path334" />
    </clipPath>
    <clipPath
       id="clippath-111">
      <path
         class="cls-74"
         d="m1521,575.09c-4.03-6.75-9.02-12.88-14.82-18.19l-16.38,13.35c-6.12-5.05-13.18-8.84-20.77-11.16l2.18-20.98c-7.64-1.91-15.51-2.7-23.39-2.34l-2.18,20.98c-7.92.76-15.61,3.08-22.64,6.81l-13.3-16.32c-6.77,4.05-12.92,9.06-18.25,14.88l13.3,16.32c-5.08,6.13-8.9,13.2-11.24,20.8l-20.99-2.1c-1.94,7.64-2.76,15.51-2.43,23.38l20.99,2.1c.73,7.91,3.02,15.59,6.74,22.6l-16.38,13.35c4.03,6.75,9.02,12.88,14.82,18.19l16.38-13.35c6.12,5.05,13.18,8.84,20.77,11.16l-2.18,20.98c7.64,1.91,15.51,2.7,23.39,2.34l2.18-20.98c7.92-.76,15.61-3.08,22.64-6.81l13.3,16.32c6.77-4.05,12.92-9.06,18.25-14.88l-13.3-16.32c5.08-6.13,8.9-13.2,11.24-20.8l20.99,2.1c1.94-7.64,2.76-15.51,2.43-23.38l-20.98-2.1c-.73-7.91-3.02-15.59-6.74-22.6l16.38-13.35h0Zm-40.41,17.8c13.16,16.15,10.69,39.99-5.52,53.2-16.21,13.21-40.06,10.82-53.22-5.33-13.16-16.15-10.69-39.99,5.52-53.2,16.21-13.21,40.05-10.82,53.22,5.33h0Z"
         id="path337" />
    </clipPath>
    <clipPath
       id="clippath-112">
      <path
         class="cls-74"
         d="m1455.42,575.78c22.83,2.33,39.48,22.76,37.15,45.59-2.33,22.83-22.76,39.48-45.59,37.16s-39.48-22.76-37.16-45.59c2.33-22.83,22.76-39.48,45.59-37.15h0Z"
         id="path340" />
    </clipPath>
  </defs>
  <g
     id="Layer_1-2"
     data-name="Layer 1">
    <g
       id="g927">
      <g
         id="g847" />
      <g
         id="g2605"
         transform="translate(-9.1849878,61.294995)"
         style="stroke:#000000;stroke-opacity:1">
        <g
           id="g861"
           style="fill:#d5d5d5;fill-opacity:1;stroke:#d5d5d5;stroke-opacity:1">
          <polygon
             points="225.85,170.14 282.88,170.14 282.88,118.98 105.25,118.98 105.25,170.14 162.28,170.14 162.28,354.88 225.85,354.88 "
             id="polygon849"
             style="fill:#d5d5d5;fill-opacity:1;stroke:#d5d5d5;stroke-opacity:1" />
          <rect
             x="317.81"
             y="118.98"
             width="63.580002"
             height="235.89"
             id="rect851"
             style="fill:#d5d5d5;fill-opacity:1;stroke:#d5d5d5;stroke-opacity:1" />
          <polygon
             points="602.24,354.88 657.49,354.88 657.49,118.98 602.24,118.98 602.24,281.77 515.91,118.98 488.49,118.98 433.23,118.98 433.23,354.88 488.49,354.88 488.49,188.48 575.06,354.88 "
             id="polygon853"
             style="fill:#d5d5d5;fill-opacity:1;stroke:#d5d5d5;stroke-opacity:1" />
          <polygon
             points="1000.52,354.88 1077.68,354.88 1077.68,303.71 1000.52,303.71 1000.52,256.78 1071.95,256.78 1071.95,207.25 1000.52,207.25 1000.52,170.14 1077.68,170.14 1077.68,118.98 1000.52,118.98 945.88,118.98 937.86,118.98 937.86,354.88 945.88,354.88 "
             id="polygon855"
             style="fill:#d5d5d5;fill-opacity:1;stroke:#d5d5d5;stroke-opacity:1" />
          <polygon
             points="1261.86,354.88 1289.04,354.88 1344.3,354.88 1344.3,118.98 1289.04,118.98 1289.04,281.77 1202.72,118.98 1175.3,118.98 1120.04,118.98 1120.04,354.88 1175.3,354.88 1175.3,188.48 "
             id="polygon857"
             style="fill:#d5d5d5;fill-opacity:1;stroke:#d5d5d5;stroke-opacity:1" />
          <polygon
             points="912.52,118.98 843.97,118.98 775.55,220.49 772.95,221.31 772.95,118.98 710.29,118.98 710.29,354.88 772.95,354.88 772.95,276.87 793.01,263.74 840.28,354.88 910.81,354.88 838.69,224.04 "
             id="polygon859"
             style="fill:#d5d5d5;fill-opacity:1;stroke:#d5d5d5;stroke-opacity:1" />
        </g>
        <path
           d="m 1268.29,490.2 c -20.25,0 -37.27,13.84 -42.1,32.58 H 722.15 v -0.14 L 637.88,438.37 H 235.75 c -4.63,-19.03 -21.78,-33.15 -42.24,-33.15 -24.01,0 -43.48,19.46 -43.48,43.48 0,24.02 19.47,43.47 43.48,43.47 20.49,0 37.66,-14.17 42.26,-33.24 h 393.37 l 86.77,84.41 h 509.97 c 4.39,19.36 21.71,33.81 42.4,33.81 24.01,0 43.47,-19.46 43.47,-43.47 0,-24.01 -19.46,-43.48 -43.47,-43.48 z M 193.51,471.48 c -12.59,0 -22.79,-10.2 -22.79,-22.78 0,-12.58 10.2,-22.79 22.79,-22.79 12.59,0 22.79,10.2 22.79,22.79 0,12.59 -10.2,22.78 -22.79,22.78 z m 1074.78,84.98 c -12.59,0 -22.79,-10.2 -22.79,-22.78 0,-12.58 10.2,-22.79 22.79,-22.79 12.59,0 22.79,10.2 22.79,22.79 0,12.59 -10.2,22.78 -22.79,22.78 z"
           id="path863"
           style="fill:#d5d5d5;fill-opacity:1;stroke:#d5d5d5;stroke-opacity:1" />
        <path
           d="M 1417.57,491.42 V 109.2 L 1339.7,32.8 H 1057.15 C 1052.39,13.95 1035.33,0 1015,0 c -24.01,0 -43.48,19.46 -43.48,43.48 0,24.02 19.47,43.47 43.48,43.47 20.61,0 37.87,-14.34 42.35,-33.6 h 276.5 l 63.17,64.4 v 373.67 c -19.05,4.62 -33.2,21.78 -33.2,42.25 0,24.01 19.47,43.47 43.48,43.47 24.01,0 43.47,-19.46 43.47,-43.47 0,-20.47 -14.15,-37.64 -33.2,-42.25 z M 1014.99,66.26 c -12.59,0 -22.79,-10.2 -22.79,-22.78 0,-12.58 10.2,-22.79 22.79,-22.79 12.59,0 22.79,10.2 22.79,22.79 0,12.59 -10.2,22.78 -22.79,22.78 z m 392.3,490.2 c -12.59,0 -22.79,-10.2 -22.79,-22.78 0,-12.58 10.2,-22.79 22.79,-22.79 12.59,0 22.79,10.2 22.79,22.79 0,12.59 -10.2,22.78 -22.79,22.78 z"
           id="path865"
           style="fill:#d5d5d5;fill-opacity:1;stroke:#d5d5d5;stroke-opacity:1" />
        <path
           d="M 111.38,49.51 V 37.93 c 0,-7.85 -0.04,-12.5 -0.12,-13.95 -0.12,-2.1 -0.98,-3.35 -2.58,-3.75 -0.56,-0.13 -1.34,-0.2 -2.34,-0.2 -0.68,0 -1.02,-0.2 -1.02,-0.59 0,-0.39 0.44,-0.59 1.32,-0.59 1.2,0 2.82,0.03 4.88,0.1 2.06,0.07 3.3,0.1 3.74,0.1 0.48,0 1.8,-0.03 3.95,-0.1 2.16,-0.07 3.91,-0.1 5.27,-0.1 5.39,0 9.5,0.31 12.34,0.92 4.91,1.1 8.8,3.29 11.68,6.58 3.87,4.43 5.81,10 5.81,16.71 0,7.37 -2.18,13.49 -6.53,18.35 -4.63,5.18 -11.32,7.76 -20.06,7.76 -1.56,0 -3.85,-0.13 -6.89,-0.39 -3.03,-0.26 -4.99,-0.39 -5.87,-0.39 -0.36,0 -1.49,0.03 -3.38,0.1 -1.9,0.07 -3.28,0.1 -4.16,0.1 -0.8,0 -1.2,-0.22 -1.2,-0.66 0,-0.31 0.44,-0.5 1.32,-0.59 0.6,-0.09 1.2,-0.15 1.8,-0.2 0.92,-0.22 1.5,-1.42 1.74,-3.62 0.2,-1.71 0.3,-6.38 0.3,-14.01 z m 7.49,-12.63 v 8.29 c 0,6.93 0.04,11.36 0.12,13.29 0.12,2.81 0.34,4.47 0.66,5 1.12,1.75 3.73,2.63 7.85,2.63 5.87,0 10.47,-1.58 13.8,-4.74 3.33,-3.16 5,-8.62 5,-16.38 0,-6.93 -1.92,-12.41 -5.75,-16.45 -4.19,-4.39 -9.86,-6.58 -17.01,-6.58 -2,0 -3.26,0.13 -3.8,0.39 -0.54,0.26 -0.81,0.72 -0.81,1.38 -0.04,1.97 -0.06,6.36 -0.06,13.16 z"
           id="path867"
           style="fill:#d5d5d5;fill-opacity:1;stroke:#d5d5d5;stroke-opacity:1" />
        <path
           d="M 167.44,49.51 V 37.93 c 0,-7.85 -0.04,-12.5 -0.12,-13.95 -0.12,-2.1 -0.98,-3.35 -2.58,-3.75 -0.56,-0.13 -1.34,-0.2 -2.34,-0.2 -0.68,0 -1.02,-0.2 -1.02,-0.59 0,-0.39 0.44,-0.59 1.32,-0.59 1.24,0 2.85,0.03 4.85,0.1 2,0.07 3.11,0.1 3.35,0.1 0.68,0 2.11,-0.03 4.28,-0.1 2.18,-0.07 3.56,-0.1 4.16,-0.1 4.83,0 8.5,0.94 11.02,2.83 1,0.75 1.88,1.86 2.64,3.35 0.96,1.75 1.44,3.64 1.44,5.66 0,5.13 -2.63,10.04 -7.9,14.74 4.35,6.05 6.75,9.34 7.19,9.87 2.31,3.2 4.25,5.68 5.81,7.43 2.2,2.5 4.43,3.99 6.71,4.47 0.48,0.04 0.94,0.09 1.38,0.13 0.68,0.09 1.02,0.29 1.02,0.59 0,0.44 -0.38,0.66 -1.14,0.66 h -5.69 c -2.87,0 -5.01,-0.42 -6.41,-1.25 -1.96,-1.14 -4.69,-4.36 -8.2,-9.67 -1.72,-2.67 -3.69,-5.7 -5.93,-9.08 -0.24,-0.31 -0.6,-0.46 -1.08,-0.46 h -5.21 c -0.32,0 -0.48,0.17 -0.48,0.52 v 0.91 c 0,7.4 0.1,12.06 0.3,13.98 0.24,2.22 1.02,3.42 2.34,3.59 1.2,0.18 2.18,0.26 2.93,0.26 0.48,0 0.72,0.18 0.72,0.53 0,0.44 -0.4,0.66 -1.2,0.66 -1.36,0 -3.14,-0.03 -5.36,-0.1 -2.22,-0.07 -3.36,-0.1 -3.44,-0.1 -0.28,0 -1.34,0.03 -3.17,0.1 -1.84,0.07 -3.21,0.1 -4.13,0.1 -0.8,0 -1.2,-0.22 -1.2,-0.66 0,-0.31 0.44,-0.5 1.32,-0.59 0.6,-0.09 1.2,-0.15 1.8,-0.2 0.92,-0.22 1.5,-1.42 1.74,-3.62 0.2,-1.71 0.3,-6.38 0.3,-14.01 z m 7.07,-26.38 v 20 c 0,0.66 0.18,1.05 0.54,1.18 1.12,0.44 2.63,0.66 4.55,0.66 1.92,0 3.33,-0.37 4.25,-1.12 2.36,-1.89 3.53,-5.17 3.53,-9.87 0,-4.17 -1.08,-7.35 -3.23,-9.54 -1.72,-1.67 -3.69,-2.5 -5.93,-2.5 -1.92,0 -3.05,0.13 -3.41,0.39 -0.2,0.13 -0.3,0.4 -0.3,0.79 z"
           id="path869"
           style="fill:#d5d5d5;fill-opacity:1;stroke:#d5d5d5;stroke-opacity:1" />
        <path
           d="m 229.63,62.01 5.93,-42.89 c 0.16,-1.14 0.5,-1.71 1.02,-1.71 0.48,0 1.02,0.68 1.62,2.04 l 16.35,37.1 16.29,-37.56 c 0.44,-1.05 0.88,-1.58 1.32,-1.58 0.52,0 0.88,0.68 1.08,2.04 l 5.45,40.65 c 0.28,2.19 0.62,3.77 1.02,4.74 0.4,0.97 1.04,1.6 1.92,1.91 1.32,0.44 2.55,0.66 3.71,0.66 0.64,0 0.96,0.15 0.96,0.46 0,0.48 -0.52,0.72 -1.56,0.72 -5.07,0 -9.12,-0.13 -12.16,-0.39 -1.16,-0.09 -1.74,-0.33 -1.74,-0.72 0,-0.31 0.21,-0.55 0.63,-0.72 0.42,-0.17 0.53,-1.12 0.33,-2.83 l -3.59,-28.94 h -0.24 l -13.06,29.92 c -1.08,2.46 -1.82,3.69 -2.22,3.69 -0.36,0 -1.06,-1.1 -2.1,-3.3 -3.79,-7.95 -6.09,-12.94 -6.89,-14.96 -1.36,-3.25 -3.43,-8.13 -6.23,-14.63 h -0.24 l -3.11,26.18 c -0.12,1.01 -0.18,2.04 -0.18,3.09 0,1.05 0.6,1.8 1.8,2.1 0.88,0.22 1.72,0.33 2.52,0.33 0.6,0 0.9,0.15 0.9,0.46 0,0.48 -0.48,0.72 -1.44,0.72 -0.96,0 -2.19,-0.03 -3.68,-0.1 -1.5,-0.07 -2.37,-0.1 -2.61,-0.1 -0.32,0 -1.21,0.03 -2.66,0.1 -1.46,0.07 -2.55,0.1 -3.26,0.1 -0.71,0 -1.08,-0.24 -1.08,-0.72 0,-0.31 0.32,-0.46 0.96,-0.46 0.64,0 1.24,-0.07 1.8,-0.2 1.2,-0.26 2.02,-2 2.46,-5.2 z"
           id="path871"
           style="fill:#d5d5d5;fill-opacity:1;stroke:#d5d5d5;stroke-opacity:1" />
        <path
           d="M 295.81,49.51 V 37.93 c 0,-7.85 -0.04,-12.5 -0.12,-13.95 -0.12,-2.1 -0.8,-3.33 -2.04,-3.68 -0.68,-0.17 -1.37,-0.26 -2.07,-0.26 -0.7,0 -1.05,-0.22 -1.05,-0.66 0,-0.35 0.48,-0.53 1.44,-0.53 0.8,0 2.17,0.03 4.1,0.1 1.94,0.07 3.16,0.1 3.68,0.1 0.44,0 1.56,-0.03 3.35,-0.1 1.8,-0.07 3.11,-0.1 3.95,-0.1 0.84,0 1.26,0.18 1.26,0.53 0,0.44 -0.29,0.66 -0.86,0.66 -0.57,0 -1.19,0.07 -1.86,0.2 -1.34,0.26 -2.07,1.51 -2.19,3.75 -0.08,1.45 -0.12,6.1 -0.12,13.95 v 11.58 c 0,7.85 0.08,12.65 0.24,14.41 0.16,1.93 0.95,3 2.37,3.22 1.15,0.18 2.16,0.26 3.03,0.26 0.63,0 0.95,0.18 0.95,0.53 0,0.44 -0.38,0.66 -1.14,0.66 -1.52,0 -3.36,-0.03 -5.54,-0.1 -2.18,-0.07 -3.44,-0.1 -3.8,-0.1 -0.36,0 -1.49,0.03 -3.38,0.1 -1.9,0.07 -3.28,0.1 -4.16,0.1 -0.8,0 -1.2,-0.22 -1.2,-0.66 0,-0.31 0.44,-0.5 1.32,-0.59 0.6,-0.09 1.2,-0.15 1.8,-0.2 0.96,-0.22 1.54,-1.3 1.74,-3.26 0.2,-1.95 0.3,-6.74 0.3,-14.37 z"
           id="path873"
           style="fill:#d5d5d5;fill-opacity:1;stroke:#d5d5d5;stroke-opacity:1" />
        <path
           d="m 344.31,69.51 c -8.7,0 -15.54,-2.38 -20.51,-7.14 -4.97,-4.76 -7.46,-11.24 -7.46,-19.44 0,-7.32 2.33,-13.32 7,-17.99 4.66,-4.67 11,-7.01 19.01,-7.01 2.76,0 5.67,0.22 8.71,0.66 1.4,0.31 3.4,0.68 6.01,1.12 0.6,0.04 0.9,0.31 0.9,0.79 0,0.13 -0.05,0.5 -0.15,1.12 -0.1,0.79 -0.17,1.62 -0.22,2.5 -0.05,1.93 -0.13,4.3 -0.22,7.1 -0.08,1.01 -0.32,1.51 -0.72,1.51 -0.4,0 -0.6,-0.48 -0.6,-1.45 -0.04,-2.28 -0.82,-4.3 -2.34,-6.05 -1.04,-1.18 -2.62,-2.15 -4.73,-2.89 -2.28,-0.79 -4.75,-1.18 -7.43,-1.18 -4.79,0 -8.54,1.36 -11.26,4.08 -3.67,3.68 -5.51,9.36 -5.51,17.04 0,7.24 2.14,13.09 6.41,17.56 3.71,3.9 7.86,5.85 12.46,5.85 2.55,0 4.53,-0.17 5.93,-0.53 2.12,-0.53 3.79,-1.58 5.03,-3.16 1.08,-1.32 1.76,-2.76 2.04,-4.34 0.16,-0.88 0.42,-1.32 0.78,-1.32 0.36,0 0.54,0.33 0.54,0.99 0,0.48 -0.14,1.75 -0.42,3.82 -0.32,2.28 -0.61,3.9 -0.87,4.87 -0.26,0.97 -0.79,1.62 -1.59,1.97 -2.28,1.01 -5.87,1.51 -10.78,1.51 z"
           id="path875"
           style="fill:#d5d5d5;fill-opacity:1;stroke:#d5d5d5;stroke-opacity:1" />
        <path
           d="m 378.63,39.77 h 22.88 c 0.24,0 0.36,-0.15 0.36,-0.46 v -1.38 c 0,-7.85 -0.04,-12.5 -0.12,-13.95 -0.12,-2.1 -0.98,-3.35 -2.58,-3.75 -0.56,-0.13 -1.34,-0.2 -2.34,-0.2 -0.68,0 -1.02,-0.2 -1.02,-0.59 0,-0.39 0.42,-0.59 1.26,-0.59 1.2,0 2.83,0.03 4.91,0.1 2.08,0.07 3.31,0.1 3.71,0.1 0.4,0 1.55,-0.03 3.44,-0.1 1.9,-0.07 3.26,-0.1 4.1,-0.1 0.84,0 1.26,0.2 1.26,0.59 0,0.39 -0.36,0.59 -1.08,0.59 -0.48,0 -1.06,0.07 -1.74,0.2 -1.36,0.26 -2.1,1.51 -2.22,3.75 -0.08,1.45 -0.12,6.1 -0.12,13.95 v 11.58 c 0,7.46 0.1,12.15 0.3,14.08 0.24,2.15 1.02,3.33 2.34,3.55 1.16,0.18 2.18,0.26 3.05,0.26 0.64,0 0.96,0.18 0.96,0.53 0,0.44 -0.4,0.66 -1.2,0.66 -1.48,0 -3.31,-0.03 -5.51,-0.1 -2.2,-0.07 -3.47,-0.1 -3.83,-0.1 -0.36,0 -1.48,0.03 -3.35,0.1 -1.88,0.07 -3.25,0.1 -4.13,0.1 -0.88,0 -1.26,-0.22 -1.26,-0.66 0,-0.31 0.44,-0.5 1.32,-0.59 0.6,-0.09 1.2,-0.15 1.8,-0.2 0.92,-0.22 1.5,-1.42 1.74,-3.62 0.2,-1.71 0.3,-6.38 0.3,-14.01 v -5.79 c 0,-0.26 -0.12,-0.39 -0.36,-0.39 h -22.88 c -0.24,0 -0.36,0.13 -0.36,0.39 v 5.79 c 0,7.46 0.1,12.15 0.3,14.08 0.24,2.15 1.02,3.33 2.34,3.55 1.16,0.18 2.18,0.26 3.05,0.26 0.64,0 0.96,0.18 0.96,0.53 0,0.44 -0.4,0.66 -1.2,0.66 -1.48,0 -3.31,-0.03 -5.51,-0.1 -2.2,-0.07 -3.47,-0.1 -3.83,-0.1 -0.36,0 -1.49,0.03 -3.38,0.1 -1.9,0.07 -3.28,0.1 -4.16,0.1 -0.8,0 -1.2,-0.22 -1.2,-0.66 0,-0.31 0.44,-0.5 1.32,-0.59 0.6,-0.09 1.2,-0.15 1.8,-0.2 0.92,-0.22 1.5,-1.42 1.74,-3.62 0.2,-1.71 0.3,-6.38 0.3,-14.01 V 37.93 c 0,-7.85 -0.04,-12.5 -0.12,-13.95 -0.12,-2.1 -0.98,-3.35 -2.58,-3.75 -0.56,-0.13 -1.34,-0.2 -2.34,-0.2 -0.68,0 -1.02,-0.2 -1.02,-0.59 0,-0.39 0.42,-0.59 1.26,-0.59 1.2,0 2.83,0.03 4.91,0.1 2.08,0.07 3.31,0.1 3.71,0.1 0.4,0 1.55,-0.03 3.44,-0.1 1.9,-0.07 3.26,-0.1 4.1,-0.1 0.84,0 1.26,0.2 1.26,0.59 0,0.39 -0.36,0.59 -1.08,0.59 -0.48,0 -1.06,0.07 -1.74,0.2 -1.36,0.26 -2.1,1.51 -2.22,3.75 -0.08,1.45 -0.12,6.1 -0.12,13.95 v 1.38 c 0,0.31 0.12,0.46 0.36,0.46 z"
           id="path877"
           style="fill:#d5d5d5;fill-opacity:1;stroke:#d5d5d5;stroke-opacity:1" />
        <path
           d="m 445.89,51.41 h -13.35 c -0.24,0 -0.42,0.18 -0.54,0.53 l -3.23,9.41 c -0.6,1.75 -0.9,3.09 -0.9,4.01 0,1.36 0.8,2.04 2.4,2.04 h 0.9 c 0.6,0 0.9,0.18 0.9,0.53 0,0.44 -0.34,0.66 -1.02,0.66 -0.64,0 -1.71,-0.03 -3.2,-0.1 -1.5,-0.07 -2.55,-0.1 -3.14,-0.1 -3.47,0.13 -5.83,0.2 -7.07,0.2 -0.76,0 -1.14,-0.22 -1.14,-0.66 0,-0.35 0.24,-0.53 0.72,-0.53 0.64,0 1.26,-0.04 1.86,-0.13 1.28,-0.17 2.31,-0.79 3.11,-1.84 0.64,-0.83 1.3,-2.19 1.98,-4.08 L 439.2,20.04 c 0.64,-1.75 1.2,-2.63 1.68,-2.63 0.44,0 0.94,0.7 1.5,2.11 3.67,10.17 8.62,23.66 14.85,40.46 1.68,4.34 3.43,6.73 5.27,7.17 0.72,0.18 1.56,0.26 2.52,0.26 0.52,0 0.78,0.18 0.78,0.53 0,0.26 -0.2,0.44 -0.6,0.53 -0.4,0.09 -1.12,0.13 -2.16,0.13 -4.95,0 -8.72,-0.04 -11.32,-0.13 -1.2,-0.04 -1.8,-0.22 -1.8,-0.53 0,-0.35 0.28,-0.55 0.84,-0.59 0.64,-0.22 0.82,-0.72 0.54,-1.51 l -4.79,-13.95 c -0.12,-0.31 -0.32,-0.46 -0.6,-0.46 z m -12.16,-3.29 h 11.02 c 0.28,0 0.38,-0.13 0.3,-0.39 l -5.39,-16.25 c -0.08,-0.39 -0.18,-0.59 -0.3,-0.59 -0.16,0 -0.28,0.2 -0.36,0.59 l -5.51,16.18 c -0.08,0.31 0,0.46 0.24,0.46 z"
           id="path879"
           style="fill:#d5d5d5;fill-opacity:1;stroke:#d5d5d5;stroke-opacity:1" />
        <path
           d="M 473.19,49.51 V 37.93 c 0,-7.85 -0.04,-12.5 -0.12,-13.95 -0.12,-2.1 -0.98,-3.35 -2.58,-3.75 -0.56,-0.13 -1.34,-0.2 -2.34,-0.2 -0.68,0 -1.02,-0.2 -1.02,-0.59 0,-0.39 0.44,-0.59 1.32,-0.59 1.2,0 2.82,0.03 4.88,0.1 2.06,0.07 3.3,0.1 3.74,0.1 9.46,0 14.45,-0.02 14.97,-0.07 1.04,-0.09 1.9,-0.22 2.58,-0.39 0.68,-0.17 1,-0.26 0.96,-0.26 0.24,0 0.36,0.2 0.36,0.59 0,0.04 -0.06,0.44 -0.18,1.18 -0.12,0.88 -0.21,1.91 -0.27,3.09 -0.06,1.18 -0.17,2.63 -0.33,4.34 -0.08,0.48 -0.28,0.72 -0.6,0.72 -0.28,0 -0.45,-0.24 -0.51,-0.72 -0.06,-0.48 -0.11,-0.94 -0.15,-1.38 -0.04,-0.44 -0.12,-0.83 -0.24,-1.18 -0.48,-1.27 -1.82,-2.06 -4.03,-2.37 -1.36,-0.17 -4.21,-0.26 -8.54,-0.26 -0.28,0 -0.42,0.22 -0.42,0.66 v 16.64 c 0,0.48 0.14,0.72 0.42,0.72 5.49,0 8.7,-0.04 9.62,-0.13 0.68,-0.04 1.2,-0.11 1.56,-0.2 0.6,-0.17 1.04,-0.44 1.32,-0.79 0.48,-0.57 0.8,-0.86 0.96,-0.86 0.28,0 0.42,0.18 0.42,0.53 0,0.04 -0.06,0.48 -0.18,1.32 -0.12,1.01 -0.22,2.17 -0.3,3.49 -0.16,2.5 -0.24,3.97 -0.24,4.41 0,0.83 -0.18,1.25 -0.54,1.25 -0.36,0 -0.54,-0.23 -0.54,-0.69 0,-0.46 -0.08,-1.22 -0.24,-2.27 -0.32,-1.49 -1.44,-2.35 -3.37,-2.57 -1.12,-0.13 -3.97,-0.2 -8.54,-0.2 -0.24,0 -0.36,0.22 -0.36,0.66 V 59.7 c 0.08,2.32 0.55,3.83 1.41,4.51 0.86,0.68 2.8,1.02 5.8,1.02 2.72,0 4.61,-0.26 5.65,-0.79 1.4,-0.7 2.3,-2.32 2.71,-4.87 0.12,-0.66 0.34,-0.99 0.66,-0.99 0.32,0 0.48,0.39 0.48,1.18 0,2.68 -0.26,5.11 -0.78,7.3 -0.2,0.79 -0.48,1.27 -0.84,1.45 -0.36,0.17 -1.16,0.26 -2.4,0.26 -3.47,0 -6.93,-0.07 -10.36,-0.2 -3.43,-0.13 -5.51,-0.2 -6.23,-0.2 -0.36,0 -1.49,0.03 -3.38,0.1 -1.9,0.07 -3.28,0.1 -4.16,0.1 -0.8,0 -1.2,-0.22 -1.2,-0.66 0,-0.31 0.44,-0.5 1.32,-0.59 0.6,-0.09 1.2,-0.15 1.8,-0.2 0.92,-0.22 1.5,-1.42 1.74,-3.62 0.2,-1.71 0.3,-6.38 0.3,-14.01 z"
           id="path881"
           style="fill:#d5d5d5;fill-opacity:1;stroke:#d5d5d5;stroke-opacity:1" />
        <path
           d="m 518.52,37.93 v 11.58 c 0,4.96 0.06,8.22 0.18,9.8 0.16,2.37 0.52,3.82 1.08,4.34 1,0.97 3.41,1.45 7.25,1.45 3.63,0 5.97,-0.61 7.01,-1.84 0.88,-1.05 1.4,-2.37 1.56,-3.95 0.08,-0.66 0.3,-0.99 0.66,-0.99 0.32,0 0.48,0.37 0.48,1.12 0,2.63 -0.3,5.15 -0.9,7.57 -0.24,0.92 -0.72,1.47 -1.44,1.64 -0.28,0.09 -1.06,0.13 -2.34,0.13 -3.19,0 -6.57,-0.07 -10.12,-0.2 -3.55,-0.13 -5.99,-0.2 -7.31,-0.2 -0.36,0 -1.49,0.03 -3.38,0.1 -1.9,0.07 -3.28,0.1 -4.16,0.1 -0.8,0 -1.2,-0.22 -1.2,-0.66 0,-0.31 0.44,-0.5 1.32,-0.59 0.6,-0.09 1.2,-0.15 1.8,-0.2 0.92,-0.22 1.5,-1.42 1.74,-3.62 0.2,-1.71 0.3,-6.38 0.3,-14.01 V 37.92 c 0,-7.85 -0.04,-12.5 -0.12,-13.95 -0.08,-1.62 -0.52,-2.72 -1.32,-3.29 -0.64,-0.44 -1.72,-0.66 -3.23,-0.66 -0.68,0 -1.02,-0.2 -1.02,-0.59 0,-0.39 0.44,-0.59 1.32,-0.59 1.04,0 2.55,0.03 4.55,0.1 2,0.07 3.21,0.1 3.65,0.1 0.4,0 1.65,-0.03 3.74,-0.1 2.1,-0.07 3.56,-0.1 4.4,-0.1 0.84,0 1.26,0.2 1.26,0.59 0,0.39 -0.36,0.59 -1.08,0.59 -0.88,0 -1.66,0.07 -2.34,0.2 -1.36,0.26 -2.1,1.51 -2.22,3.75 -0.08,1.45 -0.12,6.1 -0.12,13.95 z"
           id="path883"
           style="fill:#d5d5d5;fill-opacity:1;stroke:#d5d5d5;stroke-opacity:1" />
        <path
           d="m 575.98,39.77 h 22.88 c 0.24,0 0.36,-0.15 0.36,-0.46 v -1.38 c 0,-7.85 -0.04,-12.5 -0.12,-13.95 -0.12,-2.1 -0.98,-3.35 -2.58,-3.75 -0.56,-0.13 -1.34,-0.2 -2.34,-0.2 -0.68,0 -1.02,-0.2 -1.02,-0.59 0,-0.39 0.42,-0.59 1.26,-0.59 1.2,0 2.83,0.03 4.91,0.1 2.08,0.07 3.31,0.1 3.71,0.1 0.4,0 1.55,-0.03 3.44,-0.1 1.9,-0.07 3.26,-0.1 4.1,-0.1 0.84,0 1.26,0.2 1.26,0.59 0,0.39 -0.36,0.59 -1.08,0.59 -0.48,0 -1.06,0.07 -1.74,0.2 -1.36,0.26 -2.1,1.51 -2.22,3.75 -0.08,1.45 -0.12,6.1 -0.12,13.95 v 11.58 c 0,7.46 0.1,12.15 0.3,14.08 0.24,2.15 1.02,3.33 2.34,3.55 1.16,0.18 2.18,0.26 3.05,0.26 0.64,0 0.96,0.18 0.96,0.53 0,0.44 -0.4,0.66 -1.2,0.66 -1.48,0 -3.31,-0.03 -5.51,-0.1 -2.2,-0.07 -3.47,-0.1 -3.83,-0.1 -0.36,0 -1.48,0.03 -3.35,0.1 -1.88,0.07 -3.25,0.1 -4.13,0.1 -0.88,0 -1.26,-0.22 -1.26,-0.66 0,-0.31 0.44,-0.5 1.32,-0.59 0.6,-0.09 1.2,-0.15 1.8,-0.2 0.92,-0.22 1.5,-1.42 1.74,-3.62 0.2,-1.71 0.3,-6.38 0.3,-14.01 v -5.79 c 0,-0.26 -0.12,-0.39 -0.36,-0.39 h -22.88 c -0.24,0 -0.36,0.13 -0.36,0.39 v 5.79 c 0,7.46 0.1,12.15 0.3,14.08 0.24,2.15 1.02,3.33 2.34,3.55 1.16,0.18 2.18,0.26 3.05,0.26 0.64,0 0.96,0.18 0.96,0.53 0,0.44 -0.4,0.66 -1.2,0.66 -1.48,0 -3.31,-0.03 -5.51,-0.1 -2.2,-0.07 -3.47,-0.1 -3.83,-0.1 -0.36,0 -1.49,0.03 -3.38,0.1 -1.9,0.07 -3.28,0.1 -4.16,0.1 -0.8,0 -1.2,-0.22 -1.2,-0.66 0,-0.31 0.44,-0.5 1.32,-0.59 0.6,-0.09 1.2,-0.15 1.8,-0.2 0.92,-0.22 1.5,-1.42 1.74,-3.62 0.2,-1.71 0.3,-6.38 0.3,-14.01 V 37.93 c 0,-7.85 -0.04,-12.5 -0.12,-13.95 -0.12,-2.1 -0.98,-3.35 -2.58,-3.75 -0.56,-0.13 -1.34,-0.2 -2.34,-0.2 -0.68,0 -1.02,-0.2 -1.02,-0.59 0,-0.39 0.42,-0.59 1.26,-0.59 1.2,0 2.83,0.03 4.91,0.1 2.08,0.07 3.31,0.1 3.71,0.1 0.4,0 1.55,-0.03 3.44,-0.1 1.9,-0.07 3.26,-0.1 4.1,-0.1 0.84,0 1.26,0.2 1.26,0.59 0,0.39 -0.36,0.59 -1.08,0.59 -0.48,0 -1.06,0.07 -1.74,0.2 -1.36,0.26 -2.1,1.51 -2.22,3.75 -0.08,1.45 -0.12,6.1 -0.12,13.95 v 1.38 c 0,0.31 0.12,0.46 0.36,0.46 z"
           id="path885"
           style="fill:#d5d5d5;fill-opacity:1;stroke:#d5d5d5;stroke-opacity:1" />
        <path
           d="m 643.34,51.41 h -13.35 c -0.24,0 -0.42,0.18 -0.54,0.53 l -3.23,9.41 c -0.6,1.75 -0.9,3.09 -0.9,4.01 0,1.36 0.8,2.04 2.4,2.04 h 0.9 c 0.6,0 0.9,0.18 0.9,0.53 0,0.44 -0.34,0.66 -1.02,0.66 -0.64,0 -1.71,-0.03 -3.2,-0.1 -1.5,-0.07 -2.55,-0.1 -3.14,-0.1 -3.47,0.13 -5.83,0.2 -7.07,0.2 -0.76,0 -1.14,-0.22 -1.14,-0.66 0,-0.35 0.24,-0.53 0.72,-0.53 0.64,0 1.26,-0.04 1.86,-0.13 1.28,-0.17 2.31,-0.79 3.11,-1.84 0.64,-0.83 1.3,-2.19 1.98,-4.08 l 15.03,-41.31 c 0.64,-1.75 1.2,-2.63 1.68,-2.63 0.44,0 0.94,0.7 1.5,2.11 3.67,10.17 8.62,23.66 14.85,40.46 1.68,4.34 3.43,6.73 5.27,7.17 0.72,0.18 1.56,0.26 2.52,0.26 0.52,0 0.78,0.18 0.78,0.53 0,0.26 -0.2,0.44 -0.6,0.53 -0.4,0.09 -1.12,0.13 -2.16,0.13 -4.95,0 -8.72,-0.04 -11.32,-0.13 -1.2,-0.04 -1.8,-0.22 -1.8,-0.53 0,-0.35 0.28,-0.55 0.84,-0.59 0.64,-0.22 0.82,-0.72 0.54,-1.51 l -4.79,-13.95 c -0.12,-0.31 -0.32,-0.46 -0.6,-0.46 z m -12.16,-3.29 h 11.02 c 0.28,0 0.38,-0.13 0.3,-0.39 l -5.39,-16.25 c -0.08,-0.39 -0.18,-0.59 -0.3,-0.59 -0.16,0 -0.28,0.2 -0.36,0.59 l -5.51,16.18 c -0.08,0.31 0,0.46 0.24,0.46 z"
           id="path887"
           style="fill:#d5d5d5;fill-opacity:1;stroke:#d5d5d5;stroke-opacity:1" />
        <path
           d="M 673.75,49.51 V 22.54 l -8.92,0.26 c -3.15,0.09 -5.09,0.72 -5.81,1.91 -0.52,0.83 -0.86,1.6 -1.02,2.3 -0.12,0.53 -0.34,0.79 -0.66,0.79 -0.36,0 -0.54,-0.35 -0.54,-1.05 0,-1.18 0.42,-3.71 1.26,-7.56 0.2,-0.83 0.44,-1.25 0.72,-1.25 0.12,0 0.44,0.12 0.96,0.36 0.52,0.24 1.06,0.38 1.62,0.43 2.16,0.22 4.15,0.33 5.99,0.33 h 23.72 c 1.56,0 2.93,-0.1 4.13,-0.3 1.2,-0.2 1.74,-0.3 1.62,-0.3 0.32,0 0.48,0.46 0.48,1.37 0,0.44 -0.03,1.66 -0.09,3.66 -0.06,2 -0.11,3.33 -0.15,3.99 -0.04,0.65 -0.2,0.98 -0.48,0.98 -0.36,0 -0.58,-0.44 -0.66,-1.32 l -0.06,-0.72 c -0.2,-2.32 -2.56,-3.55 -7.07,-3.68 l -7.55,-0.2 v 26.97 c 0,7.46 0.1,12.15 0.3,14.08 0.24,2.15 1.02,3.33 2.34,3.55 1.16,0.18 2.18,0.26 3.05,0.26 0.64,0 0.96,0.18 0.96,0.53 0,0.44 -0.38,0.66 -1.14,0.66 -1.52,0 -3.37,-0.03 -5.57,-0.1 -2.2,-0.07 -3.47,-0.1 -3.83,-0.1 -0.36,0 -1.49,0.03 -3.38,0.1 -1.9,0.07 -3.28,0.1 -4.16,0.1 -0.8,0 -1.2,-0.22 -1.2,-0.66 0,-0.31 0.44,-0.5 1.32,-0.59 0.6,-0.09 1.2,-0.15 1.8,-0.2 0.92,-0.22 1.5,-1.42 1.74,-3.62 0.2,-1.93 0.3,-6.6 0.3,-14.01 z"
           id="path889"
           style="fill:#d5d5d5;fill-opacity:1;stroke:#d5d5d5;stroke-opacity:1" />
        <path
           d="m 715.93,39.77 h 22.88 c 0.24,0 0.36,-0.15 0.36,-0.46 v -1.38 c 0,-7.85 -0.04,-12.5 -0.12,-13.95 -0.12,-2.1 -0.98,-3.35 -2.58,-3.75 -0.56,-0.13 -1.34,-0.2 -2.34,-0.2 -0.68,0 -1.02,-0.2 -1.02,-0.59 0,-0.39 0.42,-0.59 1.26,-0.59 1.2,0 2.83,0.03 4.91,0.1 2.08,0.07 3.31,0.1 3.71,0.1 0.4,0 1.55,-0.03 3.44,-0.1 1.9,-0.07 3.26,-0.1 4.1,-0.1 0.84,0 1.26,0.2 1.26,0.59 0,0.39 -0.36,0.59 -1.08,0.59 -0.48,0 -1.06,0.07 -1.74,0.2 -1.36,0.26 -2.1,1.51 -2.22,3.75 -0.08,1.45 -0.12,6.1 -0.12,13.95 v 11.58 c 0,7.46 0.1,12.15 0.3,14.08 0.24,2.15 1.02,3.33 2.34,3.55 1.16,0.18 2.18,0.26 3.05,0.26 0.64,0 0.96,0.18 0.96,0.53 0,0.44 -0.4,0.66 -1.2,0.66 -1.48,0 -3.31,-0.03 -5.51,-0.1 -2.2,-0.07 -3.47,-0.1 -3.83,-0.1 -0.36,0 -1.48,0.03 -3.35,0.1 -1.88,0.07 -3.25,0.1 -4.13,0.1 -0.88,0 -1.26,-0.22 -1.26,-0.66 0,-0.31 0.44,-0.5 1.32,-0.59 0.6,-0.09 1.2,-0.15 1.8,-0.2 0.92,-0.22 1.5,-1.42 1.74,-3.62 0.2,-1.71 0.3,-6.38 0.3,-14.01 v -5.79 c 0,-0.26 -0.12,-0.39 -0.36,-0.39 h -22.88 c -0.24,0 -0.36,0.13 -0.36,0.39 v 5.79 c 0,7.46 0.1,12.15 0.3,14.08 0.24,2.15 1.02,3.33 2.34,3.55 1.16,0.18 2.18,0.26 3.05,0.26 0.64,0 0.96,0.18 0.96,0.53 0,0.44 -0.4,0.66 -1.2,0.66 -1.48,0 -3.31,-0.03 -5.51,-0.1 -2.2,-0.07 -3.47,-0.1 -3.83,-0.1 -0.36,0 -1.49,0.03 -3.38,0.1 -1.9,0.07 -3.28,0.1 -4.16,0.1 -0.8,0 -1.2,-0.22 -1.2,-0.66 0,-0.31 0.44,-0.5 1.32,-0.59 0.6,-0.09 1.2,-0.15 1.8,-0.2 0.92,-0.22 1.5,-1.42 1.74,-3.62 0.2,-1.71 0.3,-6.38 0.3,-14.01 V 37.93 c 0,-7.85 -0.04,-12.5 -0.12,-13.95 -0.12,-2.1 -0.98,-3.35 -2.58,-3.75 -0.56,-0.13 -1.34,-0.2 -2.34,-0.2 -0.68,0 -1.02,-0.2 -1.02,-0.59 0,-0.39 0.42,-0.59 1.26,-0.59 1.2,0 2.83,0.03 4.91,0.1 2.08,0.07 3.31,0.1 3.71,0.1 0.4,0 1.55,-0.03 3.44,-0.1 1.9,-0.07 3.26,-0.1 4.1,-0.1 0.84,0 1.26,0.2 1.26,0.59 0,0.39 -0.36,0.59 -1.08,0.59 -0.48,0 -1.06,0.07 -1.74,0.2 -1.36,0.26 -2.1,1.51 -2.22,3.75 -0.08,1.45 -0.12,6.1 -0.12,13.95 v 1.38 c 0,0.31 0.12,0.46 0.36,0.46 z"
           id="path891"
           style="fill:#d5d5d5;fill-opacity:1;stroke:#d5d5d5;stroke-opacity:1" />
        <path
           d="M 783.65,51.41 H 770.3 c -0.24,0 -0.42,0.18 -0.54,0.53 l -3.23,9.41 c -0.6,1.75 -0.9,3.09 -0.9,4.01 0,1.36 0.8,2.04 2.4,2.04 h 0.9 c 0.6,0 0.9,0.18 0.9,0.53 0,0.44 -0.34,0.66 -1.02,0.66 -0.64,0 -1.71,-0.03 -3.2,-0.1 -1.5,-0.07 -2.55,-0.1 -3.14,-0.1 -3.47,0.13 -5.83,0.2 -7.07,0.2 -0.76,0 -1.14,-0.22 -1.14,-0.66 0,-0.35 0.24,-0.53 0.72,-0.53 0.64,0 1.26,-0.04 1.86,-0.13 1.28,-0.17 2.31,-0.79 3.11,-1.84 0.64,-0.83 1.3,-2.19 1.98,-4.08 l 15.03,-41.31 c 0.64,-1.75 1.2,-2.63 1.68,-2.63 0.44,0 0.94,0.7 1.5,2.11 3.67,10.17 8.62,23.66 14.85,40.46 1.68,4.34 3.43,6.73 5.27,7.17 0.72,0.18 1.56,0.26 2.52,0.26 0.52,0 0.78,0.18 0.78,0.53 0,0.26 -0.2,0.44 -0.6,0.53 -0.4,0.09 -1.12,0.13 -2.16,0.13 -4.95,0 -8.72,-0.04 -11.32,-0.13 -1.2,-0.04 -1.8,-0.22 -1.8,-0.53 0,-0.35 0.28,-0.55 0.84,-0.59 0.64,-0.22 0.82,-0.72 0.54,-1.51 l -4.79,-13.95 c -0.12,-0.31 -0.32,-0.46 -0.6,-0.46 z m -12.16,-3.29 h 11.02 c 0.28,0 0.38,-0.13 0.3,-0.39 l -5.39,-16.25 c -0.08,-0.39 -0.18,-0.59 -0.3,-0.59 -0.16,0 -0.28,0.2 -0.36,0.59 l -5.51,16.18 c -0.08,0.31 0,0.46 0.24,0.46 z"
           id="path893"
           style="fill:#d5d5d5;fill-opacity:1;stroke:#d5d5d5;stroke-opacity:1" />
        <path
           d="M 813.92,67.07 801.22,25.3 c -0.8,-2.59 -1.54,-4.14 -2.22,-4.67 -0.52,-0.39 -1.32,-0.59 -2.4,-0.59 -0.64,0 -0.96,-0.2 -0.96,-0.59 0,-0.39 0.44,-0.59 1.32,-0.59 1.24,0 2.71,0.03 4.43,0.1 1.72,0.07 2.55,0.1 2.52,0.1 -0.08,0 0.66,-0.03 2.22,-0.1 1.56,-0.07 3.03,-0.1 4.43,-0.1 0.84,0 1.26,0.2 1.26,0.59 0,0.35 -0.34,0.55 -1.02,0.59 -0.84,0.04 -1.36,0.13 -1.56,0.26 -0.44,0.22 -0.66,0.7 -0.66,1.45 0,0.35 0.44,2.37 1.32,6.05 1.48,6.27 4.03,15.59 7.67,27.96 h 0.18 l 11.62,-34.33 c 0.52,-1.58 1.02,-2.37 1.5,-2.37 0.4,0 0.98,1.03 1.74,3.1 l 12.46,33.15 h 0.18 c 0.48,-1.97 3.13,-11.8 7.96,-29.47 0.4,-1.45 0.6,-2.72 0.6,-3.82 0,-1.32 -0.96,-1.97 -2.87,-1.97 -0.68,0 -1.02,-0.2 -1.02,-0.59 0,-0.39 0.46,-0.59 1.38,-0.59 1.28,0 2.64,0.03 4.1,0.1 1.46,0.07 2.17,0.1 2.13,0.1 2.51,-0.13 4.17,-0.2 4.97,-0.2 0.72,0 1.08,0.18 1.08,0.53 0,0.44 -0.28,0.66 -0.84,0.66 -0.88,0 -1.58,0.11 -2.1,0.33 -0.64,0.26 -1.22,1.03 -1.74,2.3 -0.16,0.39 -0.7,1.95 -1.62,4.67 -2.56,7.72 -6.55,20.74 -11.98,39.08 -0.6,2.06 -1.18,3.09 -1.74,3.09 -0.44,0 -1.06,-1.08 -1.86,-3.22 L 829.24,33.35 h -0.12 c -5.83,17.19 -9.72,28.09 -11.68,32.69 -1,2.33 -1.72,3.49 -2.16,3.49 -0.44,0 -0.9,-0.81 -1.38,-2.43 z"
           id="path895"
           style="fill:#d5d5d5;fill-opacity:1;stroke:#d5d5d5;stroke-opacity:1" />
        <path
           d="m 885.61,51.41 h -13.35 c -0.24,0 -0.42,0.18 -0.54,0.53 l -3.23,9.41 c -0.6,1.75 -0.9,3.09 -0.9,4.01 0,1.36 0.8,2.04 2.4,2.04 h 0.9 c 0.6,0 0.9,0.18 0.9,0.53 0,0.44 -0.34,0.66 -1.02,0.66 -0.64,0 -1.71,-0.03 -3.2,-0.1 -1.5,-0.07 -2.54,-0.1 -3.14,-0.1 -3.47,0.13 -5.83,0.2 -7.07,0.2 -0.76,0 -1.14,-0.22 -1.14,-0.66 0,-0.35 0.24,-0.53 0.72,-0.53 0.64,0 1.26,-0.04 1.86,-0.13 1.28,-0.17 2.31,-0.79 3.11,-1.84 0.64,-0.83 1.3,-2.19 1.98,-4.08 l 15.03,-41.31 c 0.64,-1.75 1.2,-2.63 1.68,-2.63 0.44,0 0.94,0.7 1.5,2.11 3.67,10.17 8.62,23.66 14.85,40.46 1.68,4.34 3.43,6.73 5.27,7.17 0.72,0.18 1.56,0.26 2.52,0.26 0.52,0 0.78,0.18 0.78,0.53 0,0.26 -0.2,0.44 -0.6,0.53 -0.4,0.09 -1.12,0.13 -2.16,0.13 -4.95,0 -8.72,-0.04 -11.32,-0.13 -1.2,-0.04 -1.8,-0.22 -1.8,-0.53 0,-0.35 0.28,-0.55 0.84,-0.59 0.64,-0.22 0.82,-0.72 0.54,-1.51 l -4.79,-13.95 c -0.12,-0.31 -0.32,-0.46 -0.6,-0.46 z m -12.16,-3.29 h 11.02 c 0.28,0 0.38,-0.13 0.3,-0.39 l -5.39,-16.25 c -0.08,-0.39 -0.18,-0.59 -0.3,-0.59 -0.16,0 -0.28,0.2 -0.36,0.59 l -5.51,16.18 c -0.08,0.31 0,0.46 0.24,0.46 z"
           id="path897"
           style="fill:#d5d5d5;fill-opacity:1;stroke:#d5d5d5;stroke-opacity:1" />
        <path
           d="m 916.61,56.94 v -5.39 c 0,-2.32 -0.46,-4.63 -1.38,-6.91 -0.24,-0.53 -1.81,-3.4 -4.7,-8.62 -2.9,-5.22 -4.84,-8.66 -5.84,-10.33 -1.48,-2.41 -2.85,-4.01 -4.13,-4.8 -0.92,-0.57 -1.76,-0.85 -2.52,-0.85 -0.6,0 -0.9,-0.2 -0.9,-0.59 0,-0.39 0.38,-0.59 1.14,-0.59 0.28,0 1.43,0.03 3.44,0.1 2.02,0.07 3.38,0.1 4.1,0.1 0.32,0 1.22,-0.03 2.69,-0.1 1.48,-0.07 2.71,-0.1 3.71,-0.1 0.6,0 0.9,0.2 0.9,0.59 0,0.22 -0.44,0.46 -1.32,0.72 -0.56,0.13 -0.84,0.53 -0.84,1.18 0,0.39 0.24,1.14 0.72,2.24 0.16,0.39 3.55,6.95 10.18,19.67 2.71,-5.35 5.71,-11.38 8.98,-18.09 0.56,-1.36 0.84,-2.5 0.84,-3.42 0,-0.92 -0.39,-1.41 -1.17,-1.61 -0.78,-0.2 -1.17,-0.43 -1.17,-0.69 0,-0.39 0.34,-0.59 1.02,-0.59 0.68,0 1.65,0.03 2.9,0.1 1.26,0.07 2.17,0.1 2.72,0.1 0.44,0 1.53,-0.03 3.26,-0.1 1.74,-0.07 2.78,-0.1 3.14,-0.1 0.72,0 1.08,0.18 1.08,0.53 0,0.44 -0.39,0.66 -1.17,0.66 -0.78,0 -1.64,0.26 -2.58,0.79 -0.94,0.53 -2.03,1.6 -3.27,3.22 -0.96,1.27 -2.97,4.71 -6.04,10.33 -3.06,5.61 -4.88,9.14 -5.44,10.59 -0.6,1.58 -0.9,3.77 -0.9,6.58 v 5.39 c 0,3.86 0.1,6.36 0.3,7.5 0.24,1.62 1.03,2.52 2.36,2.7 1.17,0.18 2.17,0.26 3.02,0.26 0.64,0 0.97,0.18 0.97,0.53 0,0.44 -0.42,0.66 -1.26,0.66 -1.44,0 -3.23,-0.03 -5.39,-0.1 -2.16,-0.07 -3.41,-0.1 -3.77,-0.1 -0.44,0 -1.6,0.03 -3.47,0.1 -1.88,0.07 -3.21,0.1 -4.01,0.1 -0.88,0 -1.32,-0.22 -1.32,-0.66 0,-0.26 0.44,-0.46 1.32,-0.59 0.56,-0.09 1.14,-0.15 1.74,-0.2 1.12,-0.26 1.74,-1.47 1.86,-3.62 0.12,-1.89 0.18,-4.08 0.18,-6.58 z"
           id="path899"
           style="fill:#d5d5d5;fill-opacity:1;stroke:#d5d5d5;stroke-opacity:1" />
        <g
           id="g925"
           style="fill:#d5d5d5;fill-opacity:1;stroke:#d5d5d5;stroke-opacity:1">
          <polygon
             class="cls-122"
             points="732.97,435.32 762.48,435.32 762.48,421.05 732.97,421.05 732.97,408.77 766.68,408.77 766.68,394.21 716.45,394.21 716.45,461.57 766.68,461.57 766.68,447.01 732.97,447.01 "
             id="polygon903"
             style="fill:#d5d5d5;fill-opacity:1;stroke:#d5d5d5;stroke-opacity:1" />
          <polygon
             class="cls-122"
             points="1018.81,435.32 1048.32,435.32 1048.32,421.05 1018.81,421.05 1018.81,408.77 1052.52,408.77 1052.52,394.21 1002.3,394.21 1002.3,461.57 1052.52,461.57 1052.52,447.01 1018.81,447.01 "
             id="polygon905"
             style="fill:#d5d5d5;fill-opacity:1;stroke:#d5d5d5;stroke-opacity:1" />
          <polygon
             class="cls-122"
             points="1077.53,435.32 1107.04,435.32 1107.04,421.05 1077.53,421.05 1077.53,408.77 1111.24,408.77 1111.24,394.21 1061.02,394.21 1061.02,461.57 1111.24,461.57 1111.24,447.01 1077.53,447.01 "
             id="polygon907"
             style="fill:#d5d5d5;fill-opacity:1;stroke:#d5d5d5;stroke-opacity:1" />
          <path
             class="cls-122"
             d="m 870.88,437.01 19.55,0.2 c -3.41,6.62 -9.42,10.63 -17.35,10.63 -12.03,0 -19.75,-8.92 -19.75,-19.65 0,-12.03 7.92,-20.35 19.65,-20.35 6.12,0 12.93,2.31 15.84,10.23 h 17.85 c -2.91,-16.24 -17.35,-25.57 -34.09,-25.57 -20.75,0 -36.4,14.84 -36.4,36.09 0,19.55 14.94,34.69 36.3,34.69 9.52,0 16.64,-3.61 21.56,-9.63 l 0.7,8.32 h 12.63 v -38.3 h -36.5 V 437 Z"
             id="path909"
             style="fill:#d5d5d5;fill-opacity:1;stroke:#d5d5d5;stroke-opacity:1" />
          <path
             class="cls-122"
             d="m 1304.5,423.68 v 13.33 l 19.55,0.2 c -3.41,6.62 -9.42,10.63 -17.35,10.63 -12.03,0 -19.75,-8.92 -19.75,-19.65 0,-12.03 7.92,-20.35 19.65,-20.35 6.12,0 12.93,2.31 15.84,10.23 h 17.85 c -2.91,-16.24 -17.35,-25.57 -34.09,-25.57 -20.75,0 -36.4,14.84 -36.4,36.09 0,19.55 14.94,34.69 36.3,34.69 9.52,0 16.64,-3.61 21.56,-9.63 l 0.7,8.32 h 12.63 v -38.3 h -36.5 z"
             id="path911"
             style="fill:#d5d5d5;fill-opacity:1;stroke:#d5d5d5;stroke-opacity:1" />
          <rect
             class="cls-122"
             x="914.27002"
             y="394.20999"
             width="17.9"
             height="67.629997"
             id="rect913"
             style="fill:#d5d5d5;fill-opacity:1;stroke:#d5d5d5;stroke-opacity:1" />
          <rect
             class="cls-122"
             x="1181.72"
             y="394.20999"
             width="18.540001"
             height="67.349998"
             id="rect915"
             style="fill:#d5d5d5;fill-opacity:1;stroke:#d5d5d5;stroke-opacity:1" />
          <polygon
             class="cls-122"
             points="811.52,427.53 792.1,394.21 774.95,394.21 774.95,460.84 792.1,460.84 792.1,427.37 810.88,460.84 828.77,460.84 828.77,394.21 811.52,394.21 "
             id="polygon917"
             style="fill:#d5d5d5;fill-opacity:1;stroke:#d5d5d5;stroke-opacity:1" />
          <polygon
             class="cls-122"
             points="976.87,427.53 957.46,394.21 940.31,394.21 940.31,460.84 957.46,460.84 957.46,427.37 976.24,460.84 994.13,460.84 994.13,394.21 976.87,394.21 "
             id="polygon919"
             style="fill:#d5d5d5;fill-opacity:1;stroke:#d5d5d5;stroke-opacity:1" />
          <polygon
             class="cls-122"
             points="1245.02,427.53 1225.6,394.21 1208.45,394.21 1208.45,460.84 1225.6,460.84 1225.6,427.37 1244.38,460.84 1262.28,460.84 1262.28,394.21 1245.02,394.21 "
             id="polygon921"
             style="fill:#d5d5d5;fill-opacity:1;stroke:#d5d5d5;stroke-opacity:1" />
          <path
             class="cls-122"
             d="m 1153.45,394.21 h -33.87 v 67.35 h 17.37 v -22.75 l 19.46,22.75 h 18.26 l -20.53,-24.69 c 27.24,-0.45 27.74,-38.89 -0.69,-42.66 z m -3.6,29.15 h -12.89 v -15.28 h 12.89 c 9.37,0 9.37,15.28 0,15.28 z"
             id="path923"
             style="fill:#d5d5d5;fill-opacity:1;stroke:#d5d5d5;stroke-opacity:1" />
        </g>
      </g>
    </g>
  </g>
</svg>
