<?xml version="1.0" encoding="UTF-8" standalone="no"?>
<svg
   width="429.997"
   height="130.137"
   viewBox="0 0 113.77 34.432"
   version="1.1"
   id="svg16"
   sodipodi:docname="13.svg"
   inkscape:version="1.1.2 (0a00cf5339, 2022-02-04)"
   xmlns:inkscape="http://www.inkscape.org/namespaces/inkscape"
   xmlns:sodipodi="http://sodipodi.sourceforge.net/DTD/sodipodi-0.dtd"
   xmlns="http://www.w3.org/2000/svg"
   xmlns:svg="http://www.w3.org/2000/svg">
  <g
     id="g2286"
     transform="matrix(1.1248155,0,0,1.1248155,-10.12429,-2.4618876)">
    <path
       d="m 54.664479,6.545523 h 1.916353 v 13.690428 h -1.916353 z m 8.949154,-0.1383753 q 2.884186,0 4.4251,1.1064735 1.560758,1.0863655 1.560758,3.2596258 0,1.185318 -0.434705,2.03462 -0.414862,0.829723 -1.225006,1.363116 -0.790036,0.513815 -1.935931,0.750878 -1.145632,0.237064 -2.587593,0.237064 h -1.521335 v 5.077026 H 59.978568 V 6.7431643 q 0.80988,-0.1976413 1.797821,-0.2569072 1.007521,-0.079109 1.837244,-0.079109 z m 0.157954,1.6792892 q -1.224741,0 -1.876666,0.059266 v 5.3733551 h 1.441961 q 0.987942,0 1.777978,-0.118532 0.7903,-0.138375 1.323693,-0.434705 0.553237,-0.315908 0.849567,-0.849302 0.296329,-0.533393 0.296329,-1.363116 0,-0.7903 -0.316173,-1.3038498 Q 66.971947,8.9357387 66.438553,8.6394091 65.925268,8.3235006 65.233656,8.2049688 64.542044,8.0864369 63.771587,8.0864369 Z m 16.317972,1.876666 q -0.770457,2.8841861 -1.8174,5.5315741 -1.027365,2.647123 -1.995198,4.741274 H 74.617515 Q 73.649417,18.142064 72.602474,15.494677 71.57511,12.847554 70.804653,9.9631029 h 1.975618 q 0.237064,0.9680981 0.552973,2.0743071 0.336016,1.08663 0.691612,2.17326 0.375174,1.066787 0.750613,2.074307 0.375439,1.007521 0.711191,1.797557 0.336017,-0.790036 0.711191,-1.797557 0.375175,-1.00752 0.731035,-2.074307 0.375174,-1.08663 0.691347,-2.17326 0.336017,-1.106209 0.572816,-2.0743071 z m 1.560757,4.7809601 q 0,-1.995462 0.552972,-3.516797 0.553237,-1.5409138 1.561022,-2.5878569 1.0271,-1.046943 2.469325,-1.5803363 1.461805,-0.5532368 3.279469,-0.5730803 l 0.138111,1.5409139 q -1.165475,0.019844 -2.133573,0.2569072 -0.948255,0.2370637 -1.698604,0.7506135 -0.750878,0.5138143 -1.264692,1.3435369 -0.513285,0.80988 -0.770457,2.015042 0.513814,-0.237064 1.145896,-0.395283 0.651925,-0.157954 1.343273,-0.157954 1.165739,0 1.975619,0.355595 0.809879,0.355596 1.323693,0.948255 0.51355,0.572816 0.73077,1.343273 0.237064,0.750878 0.237064,1.580601 0,0.750613 -0.256643,1.540914 -0.256642,0.790035 -0.7903,1.441961 -0.51355,0.651925 -1.323694,1.066786 -0.809615,0.414862 -1.916088,0.414862 -2.252105,0 -3.437424,-1.540914 -1.165739,-1.540914 -1.165739,-4.247303 z m 4.4251,-1.402803 q -0.691347,0 -1.284006,0.138376 -0.592659,0.118531 -1.185319,0.375174 -0.01984,0.217485 -0.03969,0.454549 v 0.43444 q 0,0.86941 0.118532,1.639867 0.118532,0.770457 0.414862,1.363116 0.316173,0.572816 0.829722,0.928411 0.513815,0.336017 1.303851,0.336017 0.651925,0 1.106473,-0.276751 0.454284,-0.276486 0.750614,-0.711191 0.296329,-0.434705 0.414861,-0.928676 0.138376,-0.513285 0.138376,-0.987677 0,-1.343273 -0.651926,-2.054464 -0.632343,-0.711191 -1.91635,-0.711191 z M 96.92108,9.7458827 q 0.237064,0 0.533393,0.039687 0.316173,0.019579 0.612503,0.078845 0.296329,0.039687 0.533393,0.098688 0.256643,0.039687 0.375175,0.079109 l -0.315909,1.60018 q -0.217485,-0.07911 -0.731035,-0.177798 -0.49397,-0.118531 -1.284006,-0.118531 -0.513815,0 -1.027364,0.118531 -0.493971,0.09869 -0.651926,0.138376 v 8.632981 H 93.128061 V 10.397808 Q 93.779986,10.160744 94.748084,9.9631002 95.715918,9.74588 96.92108,9.7458827 Z m 6.22294,9.1663743 q 1.12605,0 1.65944,-0.29633 0.55298,-0.296329 0.55298,-0.948255 0,-0.671768 -0.53313,-1.066786 -0.53313,-0.395018 -1.7584,-0.888989 -0.59266,-0.237064 -1.14564,-0.474127 -0.53339,-0.256643 -0.92868,-0.592659 -0.39502,-0.336017 -0.63209,-0.80988 -0.23706,-0.473863 -0.23706,-1.165739 0,-1.363116 1.00753,-2.153152 1.00753,-0.8101443 2.74635,-0.8101443 0.43444,0 0.86888,0.059266 0.4347,0.039687 0.81014,0.1185318 0.37518,0.059266 0.65193,0.1383755 0.29633,0.07911 0.45428,0.138375 l -0.33602,1.580336 q -0.29633,-0.157954 -0.92841,-0.316173 -0.63208,-0.177797 -1.52107,-0.177797 -0.77045,0 -1.34327,0.316173 -0.57282,0.296329 -0.57282,0.948254 0,0.336017 0.11853,0.59266 0.13812,0.256642 0.39502,0.474127 0.27649,0.197641 0.67177,0.375439 0.39502,0.177798 0.94826,0.375174 0.73077,0.276751 1.30385,0.553237 0.57281,0.256643 0.96783,0.612503 0.41486,0.355595 0.63235,0.869145 0.21695,0.493971 0.21695,1.225006 0,1.422117 -1.06652,2.153152 -1.04694,0.731034 -3.00298,0.731034 -1.36286,0 -2.13332,-0.237063 -0.77046,-0.217221 -1.04695,-0.336017 l 0.33575,-1.580336 q 0.31618,0.118531 1.00753,0.355595 0.69135,0.237064 1.83725,0.237064 z"
       style="white-space:pre;shape-padding:4.67433;fill:#d5d5d5;fill-opacity:1;stroke-width:0.26458"
       aria-label="IPv6rs"
       id="path6" />
    <path
       d="M 11.845311,10.250381 V 8.2535961 h 1.881164 v 1.9967849 z m 0,8.440367 v -1.996785 h 1.881164 v 1.996785 z m 5.488712,-8.440367 V 8.2535961 h 1.881164 v 1.9967849 z m 0,8.440367 v -1.996785 h 1.881164 v 1.996785 z m 5.488712,-8.440367 V 8.2535961 h 1.881164 v 1.9967849 z m 0,8.440367 v -1.996785 h 1.881164 v 1.996785 z m 5.488712,-8.440367 V 8.2535961 h 1.881164 v 1.9967849 z m 0,8.440367 v -1.996785 h 1.881164 v 1.996785 z m 5.488712,-8.440367 V 8.2535961 h 1.881164 v 1.9967849 z m 0,8.440367 v -1.996785 h 1.881164 v 1.996785 z m 5.488712,-8.440367 V 8.2535961 h 1.881164 v 1.9967849 z m 0,8.440367 v -1.996785 h 1.881164 v 1.996785 z m 5.488712,-8.440367 V 8.2535961 h 1.881164 v 1.9967849 z m 0,8.440367 v -1.996785 h 1.881164 v 1.996785 z m 5.488713,-8.440367 V 8.2535961 h 1.881163 v 1.9967849 z m 0,8.440367 v -1.996785 h 1.881163 v 1.996785 z"
       style="white-space:pre;shape-padding:4.67433;fill:#d5d5d5;fill-opacity:1;stroke-width:0.26458"
       aria-label="::::::::"
       id="path8" />
    <g
       style="white-space:pre;fill:#d5d5d5;fill-opacity:1"
       aria-label="Because the Internet Belongs to the Bold."
       id="g14"
       transform="matrix(0.90229895,0,0,0.90229895,8.2472098,-1.0343072)">
      <path
         d="m 3.805,29.21 h 0.438 q 0.874,0 0.874,-0.79 0,-0.247 -0.077,-0.403 Q 4.97,27.855 4.85,27.77 4.73,27.679 4.567,27.643 4.412,27.608 4.236,27.608 q -0.106,0 -0.22,0.007 -0.105,0.007 -0.21,0.021 z m 0,0.508 v 1.764 q 0.134,0.02 0.261,0.035 0.134,0.014 0.261,0.014 0.198,0 0.374,-0.042 0.177,-0.043 0.304,-0.142 0.134,-0.098 0.204,-0.268 0.078,-0.176 0.078,-0.43 0,-0.437 -0.24,-0.684 Q 4.814,29.718 4.313,29.718 Z M 3.17,27.198 q 0.247,-0.056 0.501,-0.084 0.261,-0.035 0.515,-0.035 0.318,0 0.6,0.063 0.29,0.057 0.508,0.205 0.219,0.141 0.346,0.381 0.134,0.233 0.134,0.586 0,0.437 -0.184,0.72 -0.183,0.274 -0.473,0.409 0.36,0.14 0.593,0.43 0.233,0.29 0.233,0.797 0,0.381 -0.127,0.642 -0.12,0.261 -0.346,0.43 -0.226,0.163 -0.543,0.24 -0.31,0.071 -0.684,0.071 -0.247,0 -0.515,-0.028 Q 3.459,31.997 3.17,31.94 Z m 4.05,3.148 q 0.007,0.268 0.05,0.493 0.042,0.22 0.134,0.388 0.098,0.163 0.254,0.254 0.162,0.092 0.409,0.092 0.204,0 0.374,-0.056 0.176,-0.064 0.254,-0.106 l 0.113,0.487 q -0.092,0.063 -0.31,0.134 -0.213,0.077 -0.509,0.077 -0.388,0 -0.656,-0.14 Q 7.072,31.827 6.903,31.573 6.74,31.319 6.67,30.966 6.6,30.614 6.6,30.19 q 0,-1.023 0.338,-1.495 0.339,-0.473 0.896,-0.473 0.628,0 0.889,0.473 0.26,0.472 0.26,1.326 v 0.162 q 0,0.078 -0.006,0.163 z m 0.614,-1.61 q -0.304,0 -0.445,0.304 -0.134,0.304 -0.162,0.812 H 8.35 q 0,-0.515 -0.106,-0.812 -0.106,-0.303 -0.41,-0.303 z m 3.175,3.373 q -0.381,0 -0.635,-0.148 Q 10.12,31.813 9.958,31.559 9.802,31.299 9.732,30.945 9.668,30.593 9.668,30.176 q 0,-0.917 0.332,-1.432 0.339,-0.522 1.016,-0.522 0.205,0 0.367,0.05 0.162,0.049 0.303,0.126 l -0.155,0.501 q -0.219,-0.14 -0.487,-0.14 -0.38,0 -0.564,0.345 -0.177,0.346 -0.177,1.072 0,0.304 0.036,0.565 0.035,0.254 0.12,0.437 0.091,0.184 0.232,0.29 0.149,0.105 0.374,0.105 0.156,0 0.275,-0.035 0.127,-0.042 0.24,-0.106 l 0.134,0.473 q -0.112,0.077 -0.303,0.141 -0.183,0.063 -0.402,0.063 z m 1.418,-3.718 q 0.183,-0.077 0.388,-0.12 0.205,-0.049 0.445,-0.049 0.493,0 0.804,0.31 0.31,0.304 0.31,0.953 v 2.455 q -0.254,0.07 -0.522,0.113 -0.26,0.042 -0.515,0.042 -0.255,0 -0.48,-0.063 -0.218,-0.064 -0.388,-0.205 -0.162,-0.14 -0.26,-0.352 -0.1,-0.22 -0.1,-0.53 0,-0.289 0.085,-0.5 0.092,-0.22 0.247,-0.36 0.155,-0.149 0.367,-0.22 0.212,-0.077 0.459,-0.077 0.232,0 0.515,0.057 v -0.339 q 0,-0.41 -0.163,-0.571 -0.155,-0.163 -0.451,-0.163 -0.162,0 -0.31,0.036 -0.142,0.028 -0.304,0.098 z m 0.29,2.547 q 0,0.325 0.169,0.48 0.169,0.155 0.48,0.155 0.19,0 0.416,-0.049 v -1.178 q -0.212,-0.057 -0.417,-0.057 -0.134,0 -0.254,0.036 -0.12,0.028 -0.211,0.105 -0.085,0.07 -0.134,0.198 -0.05,0.12 -0.05,0.31 z m 5.009,0.974 q -0.092,0.035 -0.226,0.07 -0.127,0.029 -0.275,0.05 -0.141,0.028 -0.29,0.042 -0.14,0.021 -0.26,0.021 -0.29,0 -0.53,-0.07 -0.24,-0.064 -0.41,-0.233 -0.168,-0.17 -0.26,-0.459 -0.092,-0.296 -0.092,-0.74 v -2.28 h 0.607 v 2.258 q 0,0.544 0.162,0.77 0.17,0.218 0.508,0.218 0.113,0 0.226,-0.007 0.113,-0.014 0.233,-0.05 v -3.188 h 0.607 z m 1.608,-0.325 q 0.268,0 0.402,-0.148 0.141,-0.155 0.141,-0.402 0,-0.155 -0.056,-0.26 -0.056,-0.114 -0.148,-0.198 -0.092,-0.084 -0.212,-0.149 -0.12,-0.07 -0.24,-0.148 -0.12,-0.07 -0.233,-0.162 -0.112,-0.099 -0.204,-0.219 -0.085,-0.127 -0.141,-0.282 -0.05,-0.162 -0.05,-0.374 0,-0.459 0.283,-0.74 0.289,-0.283 0.776,-0.283 0.204,0 0.388,0.056 0.183,0.05 0.303,0.113 l -0.134,0.487 q -0.127,-0.07 -0.254,-0.106 -0.127,-0.035 -0.275,-0.035 -0.226,0 -0.36,0.134 -0.134,0.127 -0.134,0.374 0,0.141 0.05,0.247 0.049,0.099 0.126,0.183 0.085,0.078 0.184,0.149 0.106,0.07 0.219,0.134 0.134,0.077 0.26,0.169 0.135,0.092 0.233,0.219 0.106,0.12 0.17,0.289 0.063,0.162 0.063,0.395 0,0.487 -0.289,0.783 -0.282,0.297 -0.833,0.297 -0.282,0 -0.507,-0.078 -0.226,-0.078 -0.34,-0.141 L 18.65,31.39 q 0.106,0.056 0.282,0.127 0.184,0.07 0.402,0.07 z m 2.307,-1.241 q 0.007,0.268 0.05,0.494 0.042,0.218 0.134,0.388 0.099,0.162 0.254,0.254 0.162,0.091 0.409,0.091 0.205,0 0.374,-0.056 0.176,-0.064 0.254,-0.106 l 0.113,0.487 q -0.092,0.063 -0.31,0.134 -0.212,0.078 -0.509,0.078 -0.388,0 -0.656,-0.142 -0.26,-0.14 -0.43,-0.395 -0.162,-0.254 -0.233,-0.606 -0.07,-0.353 -0.07,-0.776 0,-1.024 0.338,-1.496 0.338,-0.472 0.896,-0.473 0.628,0 0.89,0.473 0.26,0.472 0.26,1.326 v 0.162 q 0,0.078 -0.007,0.163 z m 0.614,-1.609 q -0.303,0 -0.444,0.303 -0.134,0.304 -0.163,0.812 h 1.122 q 0,-0.515 -0.106,-0.812 -0.105,-0.303 -0.409,-0.303 z m 3.987,-0.423 h 0.93 v 0.522 h -0.93 v 2.039 q 0,0.38 0.134,0.536 0.14,0.148 0.374,0.148 0.12,0 0.225,-0.035 0.113,-0.035 0.19,-0.085 l 0.12,0.487 q -0.288,0.17 -0.613,0.17 -0.522,0 -0.783,-0.29 -0.254,-0.296 -0.254,-0.973 v -3.514 l 0.607,-0.106 z m 1.7,3.704 v -5.37 l 0.607,-0.105 v 1.792 q 0.134,-0.042 0.289,-0.07 0.162,-0.029 0.325,-0.029 0.232,0 0.437,0.078 0.205,0.07 0.353,0.247 0.155,0.176 0.24,0.48 0.091,0.296 0.091,0.74 v 2.237 H 29.678 V 29.83 q 0,-0.55 -0.142,-0.805 -0.14,-0.254 -0.529,-0.254 -0.204,0 -0.458,0.071 v 3.175 z m 3.817,-1.672 q 0.007,0.268 0.05,0.494 0.042,0.218 0.133,0.388 0.1,0.162 0.254,0.254 0.163,0.091 0.41,0.091 0.204,0 0.374,-0.056 0.176,-0.064 0.254,-0.106 l 0.113,0.487 q -0.092,0.063 -0.31,0.134 -0.213,0.078 -0.509,0.078 -0.388,0 -0.656,-0.142 -0.261,-0.14 -0.43,-0.395 -0.163,-0.254 -0.233,-0.606 -0.07,-0.353 -0.07,-0.776 0,-1.024 0.338,-1.496 0.338,-0.472 0.896,-0.473 0.628,0 0.889,0.473 0.261,0.473 0.26,1.326 v 0.162 q 0,0.078 -0.006,0.163 z m 0.614,-1.609 q -0.304,0 -0.445,0.303 -0.134,0.304 -0.162,0.812 h 1.122 q 0,-0.515 -0.106,-0.812 -0.106,-0.303 -0.41,-0.303 z m 3.464,-1.609 h 0.635 v 4.89 h -0.635 z m 1.778,1.292 q 0.261,-0.078 0.564,-0.127 0.304,-0.057 0.558,-0.057 0.275,0 0.5,0.078 0.227,0.07 0.382,0.247 0.162,0.176 0.247,0.48 0.091,0.296 0.091,0.74 v 2.237 H 39.351 V 29.83 q 0,-0.55 -0.141,-0.805 -0.142,-0.254 -0.53,-0.254 -0.204,0 -0.458,0.07 v 3.176 h -0.607 z m 3.965,-0.106 h 0.932 v 0.522 H 41.58 v 2.039 q 0,0.38 0.134,0.536 0.141,0.148 0.374,0.148 0.12,0 0.226,-0.035 0.113,-0.035 0.19,-0.085 l 0.12,0.487 q -0.289,0.17 -0.613,0.17 -0.522,0 -0.784,-0.29 -0.254,-0.296 -0.254,-0.973 v -3.514 l 0.607,-0.106 z m 2.082,2.032 q 0.007,0.268 0.049,0.494 0.042,0.218 0.134,0.388 0.099,0.162 0.254,0.254 0.162,0.091 0.41,0.091 0.204,0 0.373,-0.056 0.177,-0.064 0.254,-0.106 l 0.113,0.487 q -0.092,0.063 -0.31,0.134 -0.212,0.078 -0.508,0.078 -0.388,0 -0.656,-0.142 -0.262,-0.14 -0.43,-0.395 -0.163,-0.254 -0.234,-0.606 -0.07,-0.353 -0.07,-0.776 0,-1.024 0.338,-1.496 0.338,-0.472 0.896,-0.473 0.628,0 0.89,0.473 0.26,0.472 0.26,1.326 v 0.162 q 0,0.078 -0.007,0.163 z m 0.613,-1.609 q -0.303,0 -0.444,0.303 -0.134,0.304 -0.162,0.812 h 1.121 q 0,-0.515 -0.105,-0.812 -0.106,-0.303 -0.41,-0.303 z m 3.648,0.127 q -0.226,-0.099 -0.508,-0.099 -0.26,0 -0.487,0.092 v 3.16 h -0.606 v -3.541 q 0.204,-0.099 0.465,-0.162 0.268,-0.07 0.586,-0.07 0.17,0 0.339,0.02 0.169,0.02 0.317,0.078 z m 0.713,-0.444 q 0.26,-0.078 0.564,-0.127 0.304,-0.057 0.558,-0.057 0.275,0 0.5,0.078 0.226,0.07 0.382,0.247 0.162,0.176 0.246,0.48 0.092,0.296 0.092,0.74 v 2.237 H 50.371 V 29.83 q 0,-0.55 -0.14,-0.805 -0.142,-0.254 -0.53,-0.254 -0.204,0 -0.458,0.07 v 3.176 h -0.607 z m 3.817,1.926 q 0.007,0.268 0.05,0.494 0.042,0.218 0.133,0.388 0.1,0.162 0.254,0.254 0.163,0.091 0.41,0.091 0.204,0 0.373,-0.056 0.177,-0.064 0.254,-0.106 l 0.113,0.487 q -0.091,0.063 -0.31,0.134 -0.212,0.078 -0.508,0.078 -0.388,0 -0.656,-0.142 -0.261,-0.14 -0.43,-0.395 -0.163,-0.254 -0.233,-0.606 -0.071,-0.353 -0.071,-0.776 0,-1.024 0.339,-1.496 0.339,-0.472 0.896,-0.473 0.628,0 0.889,0.473 0.261,0.473 0.26,1.326 v 0.162 q 0,0.078 -0.006,0.163 z m 0.614,-1.609 q -0.304,0 -0.445,0.303 -0.134,0.304 -0.162,0.812 h 1.122 q 0,-0.515 -0.106,-0.812 -0.106,-0.303 -0.41,-0.303 z m 2.61,-0.423 h 0.932 v 0.522 h -0.932 v 2.039 q 0,0.38 0.134,0.536 0.141,0.148 0.374,0.148 0.12,0 0.226,-0.035 0.113,-0.035 0.19,-0.085 l 0.12,0.487 q -0.289,0.17 -0.613,0.17 -0.522,0 -0.784,-0.29 Q 55.07,31.51 55.07,30.833 v -3.514 l 0.607,-0.106 z m 3.754,0.896 h 0.437 q 0.875,0 0.875,-0.79 0,-0.247 -0.077,-0.403 -0.071,-0.162 -0.19,-0.247 -0.12,-0.091 -0.283,-0.127 -0.155,-0.035 -0.332,-0.035 -0.106,0 -0.218,0.007 -0.106,0.007 -0.212,0.021 z m 0,0.508 v 1.764 q 0.134,0.02 0.26,0.035 0.135,0.014 0.262,0.014 0.198,0 0.374,-0.042 0.176,-0.042 0.303,-0.141 0.134,-0.1 0.205,-0.269 0.077,-0.176 0.077,-0.43 0,-0.437 -0.24,-0.684 -0.232,-0.247 -0.733,-0.247 z m -0.635,-2.519 q 0.247,-0.056 0.5,-0.085 0.262,-0.035 0.516,-0.035 0.317,0 0.6,0.064 0.289,0.056 0.508,0.204 0.218,0.141 0.345,0.381 0.134,0.233 0.134,0.586 0,0.437 -0.183,0.72 -0.184,0.275 -0.473,0.409 0.36,0.14 0.593,0.43 0.233,0.29 0.233,0.797 0,0.381 -0.127,0.642 -0.12,0.261 -0.346,0.43 -0.226,0.163 -0.543,0.24 -0.31,0.071 -0.685,0.071 -0.247,0 -0.515,-0.028 -0.268,-0.028 -0.557,-0.085 z m 4.05,3.147 q 0.007,0.268 0.05,0.494 0.042,0.218 0.133,0.388 0.099,0.162 0.254,0.254 0.163,0.091 0.41,0.091 0.204,0 0.373,-0.056 0.177,-0.064 0.254,-0.106 l 0.113,0.487 q -0.091,0.063 -0.31,0.134 -0.212,0.078 -0.508,0.078 -0.388,0 -0.656,-0.142 -0.261,-0.14 -0.43,-0.395 -0.163,-0.254 -0.234,-0.606 -0.07,-0.353 -0.07,-0.777 0,-1.023 0.339,-1.495 0.339,-0.472 0.896,-0.473 0.628,0 0.889,0.473 0.261,0.473 0.26,1.326 v 0.162 q 0,0.078 -0.006,0.163 z m 0.614,-1.609 q -0.304,0 -0.445,0.303 -0.134,0.304 -0.162,0.812 h 1.122 q 0,-0.515 -0.106,-0.812 -0.106,-0.303 -0.41,-0.303 z m 3.005,3.351 q -0.522,-0.014 -0.748,-0.254 -0.225,-0.247 -0.225,-0.776 v -4.41 l 0.606,-0.105 v 4.53 q 0,0.246 0.1,0.36 0.098,0.105 0.345,0.147 z m 3.133,-1.919 q 0,0.438 -0.078,0.798 -0.077,0.352 -0.24,0.606 -0.155,0.254 -0.402,0.395 -0.24,0.142 -0.571,0.142 -0.332,0 -0.579,-0.142 -0.247,-0.14 -0.41,-0.395 -0.154,-0.254 -0.232,-0.606 -0.078,-0.36 -0.078,-0.798 0,-0.43 0.078,-0.79 0.078,-0.36 0.233,-0.614 0.162,-0.26 0.41,-0.402 0.246,-0.141 0.578,-0.141 0.331,0 0.571,0.141 0.247,0.141 0.402,0.402 0.163,0.254 0.24,0.614 0.077,0.36 0.078,0.79 z m -0.635,0 q 0,-0.31 -0.035,-0.564 -0.036,-0.261 -0.113,-0.445 -0.078,-0.19 -0.205,-0.289 -0.127,-0.106 -0.303,-0.106 -0.184,0 -0.31,0.106 -0.12,0.099 -0.205,0.29 -0.078,0.183 -0.113,0.444 -0.035,0.254 -0.035,0.564 0,0.31 0.035,0.572 0.035,0.254 0.113,0.437 0.084,0.184 0.204,0.29 0.127,0.098 0.31,0.098 0.177,0 0.304,-0.098 0.127,-0.106 0.205,-0.29 0.077,-0.183 0.113,-0.437 0.035,-0.261 0.035,-0.572 z m 1.524,-1.75 q 0.26,-0.077 0.564,-0.126 0.304,-0.057 0.558,-0.057 0.275,0 0.5,0.078 0.226,0.07 0.382,0.247 0.162,0.176 0.247,0.48 0.091,0.296 0.091,0.74 v 2.237 H 72.223 V 29.83 q 0,-0.55 -0.142,-0.805 -0.14,-0.254 -0.529,-0.254 -0.204,0 -0.458,0.07 v 3.176 h -0.607 z m 5.602,3.493 q 0,0.395 -0.106,0.663 -0.099,0.275 -0.275,0.445 -0.176,0.17 -0.416,0.247 -0.233,0.077 -0.501,0.077 -0.226,0 -0.452,-0.05 -0.226,-0.048 -0.416,-0.147 l 0.127,-0.508 q 0.127,0.07 0.31,0.127 0.184,0.056 0.381,0.056 0.346,0 0.543,-0.197 0.197,-0.197 0.198,-0.678 v -0.176 q -0.113,0.05 -0.24,0.085 -0.127,0.028 -0.29,0.028 -0.662,0 -0.973,-0.452 -0.303,-0.458 -0.303,-1.29 0,-0.445 0.077,-0.798 0.085,-0.36 0.254,-0.607 0.177,-0.254 0.452,-0.38 0.275,-0.135 0.67,-0.135 0.261,0 0.508,0.056 0.254,0.05 0.452,0.135 z m -0.607,-3.104 q -0.099,-0.028 -0.19,-0.036 -0.092,-0.014 -0.17,-0.014 -0.423,0 -0.62,0.325 -0.191,0.324 -0.191,1.058 0,0.663 0.19,0.939 0.19,0.268 0.544,0.268 0.12,0 0.225,-0.029 0.113,-0.028 0.212,-0.077 z m 2.215,2.78 q 0.269,0 0.403,-0.148 0.14,-0.156 0.14,-0.403 0,-0.155 -0.056,-0.26 -0.056,-0.114 -0.148,-0.198 -0.092,-0.085 -0.212,-0.148 -0.12,-0.071 -0.24,-0.149 -0.12,-0.07 -0.232,-0.162 -0.113,-0.099 -0.205,-0.219 -0.085,-0.127 -0.141,-0.282 -0.05,-0.162 -0.05,-0.374 0,-0.458 0.283,-0.74 0.29,-0.283 0.776,-0.283 0.205,0 0.388,0.057 0.183,0.049 0.303,0.113 l -0.134,0.486 q -0.127,-0.07 -0.254,-0.105 -0.127,-0.036 -0.275,-0.036 -0.226,0 -0.36,0.134 -0.134,0.127 -0.134,0.374 0,0.141 0.05,0.247 0.05,0.099 0.127,0.184 0.084,0.077 0.183,0.148 0.106,0.07 0.219,0.134 0.134,0.077 0.26,0.17 0.135,0.09 0.234,0.218 0.106,0.12 0.17,0.29 0.063,0.161 0.063,0.394 0,0.487 -0.29,0.783 -0.282,0.297 -0.832,0.297 -0.282,0 -0.508,-0.078 -0.226,-0.077 -0.339,-0.141 l 0.127,-0.5 q 0.106,0.056 0.282,0.126 0.184,0.07 0.403,0.07 z m 3.832,-3.274 h 0.93 v 0.522 h -0.93 v 2.04 q 0,0.38 0.134,0.535 0.14,0.149 0.374,0.149 0.12,0 0.225,-0.036 0.113,-0.035 0.19,-0.084 l 0.12,0.486 q -0.288,0.17 -0.613,0.17 -0.522,0 -0.783,-0.29 -0.254,-0.296 -0.254,-0.973 v -3.514 l 0.607,-0.106 z m 4.042,1.856 q 0,0.437 -0.077,0.797 -0.078,0.353 -0.24,0.607 -0.155,0.254 -0.402,0.395 -0.24,0.14 -0.572,0.14 -0.331,0 -0.578,-0.14 -0.247,-0.141 -0.41,-0.395 -0.155,-0.254 -0.232,-0.607 -0.078,-0.36 -0.078,-0.797 0,-0.43 0.078,-0.79 0.077,-0.36 0.232,-0.614 0.163,-0.262 0.41,-0.403 0.247,-0.14 0.578,-0.14 0.332,0 0.572,0.14 0.247,0.141 0.402,0.403 0.162,0.254 0.24,0.613 0.077,0.36 0.077,0.79 z m -0.635,0 q 0,-0.31 -0.035,-0.565 -0.035,-0.26 -0.113,-0.444 -0.077,-0.19 -0.204,-0.29 -0.127,-0.105 -0.304,-0.105 -0.183,0 -0.31,0.105 -0.12,0.1 -0.205,0.29 -0.077,0.183 -0.113,0.444 -0.035,0.254 -0.035,0.565 0,0.311 0.035,0.571 0.036,0.254 0.113,0.438 0.085,0.183 0.205,0.289 0.127,0.099 0.31,0.099 0.177,0 0.304,-0.1 0.127,-0.105 0.204,-0.288 0.078,-0.184 0.113,-0.438 0.035,-0.261 0.035,-0.571 z m 3.465,-1.856 h 0.93 v 0.522 h -0.93 v 2.04 q 0,0.38 0.134,0.535 0.14,0.149 0.374,0.149 0.12,0 0.225,-0.036 0.113,-0.035 0.19,-0.084 l 0.12,0.486 q -0.289,0.17 -0.613,0.17 -0.522,0 -0.783,-0.29 -0.254,-0.296 -0.254,-0.973 v -3.514 l 0.607,-0.106 z m 1.7,3.704 V 26.65 l 0.607,-0.106 v 1.792 q 0.134,-0.042 0.289,-0.07 0.162,-0.029 0.324,-0.029 0.233,0 0.438,0.078 0.205,0.07 0.353,0.247 0.155,0.176 0.24,0.48 0.091,0.296 0.091,0.74 v 2.237 h -0.606 v -2.187 q 0,-0.55 -0.142,-0.804 -0.14,-0.254 -0.529,-0.254 -0.204,0 -0.458,0.07 v 3.175 z m 3.817,-1.672 q 0.007,0.268 0.05,0.494 0.042,0.219 0.133,0.388 0.1,0.162 0.254,0.254 0.163,0.092 0.41,0.092 0.204,0 0.374,-0.057 0.176,-0.063 0.254,-0.106 l 0.112,0.487 q -0.091,0.064 -0.31,0.134 -0.212,0.078 -0.508,0.078 -0.388,0 -0.656,-0.141 -0.261,-0.141 -0.43,-0.395 -0.163,-0.254 -0.233,-0.607 -0.07,-0.353 -0.07,-0.776 0,-1.023 0.338,-1.496 0.338,-0.473 0.896,-0.473 0.628,0 0.889,0.473 0.261,0.473 0.26,1.326 v 0.163 q 0,0.077 -0.006,0.162 z m 0.614,-1.609 q -0.304,0 -0.445,0.304 -0.134,0.303 -0.162,0.811 h 1.122 q 0,-0.515 -0.106,-0.811 -0.106,-0.304 -0.41,-0.304 z m 4.099,0.473 h 0.438 q 0.874,0 0.874,-0.79 0,-0.247 -0.077,-0.403 -0.07,-0.162 -0.19,-0.247 -0.12,-0.091 -0.283,-0.127 -0.155,-0.035 -0.331,-0.035 -0.106,0 -0.22,0.007 -0.105,0.007 -0.21,0.021 z m 0,0.508 v 1.764 q 0.134,0.02 0.261,0.035 0.134,0.014 0.261,0.014 0.198,0 0.374,-0.042 0.176,-0.042 0.304,-0.142 0.134,-0.098 0.204,-0.268 0.078,-0.176 0.078,-0.43 0,-0.437 -0.24,-0.684 -0.233,-0.247 -0.734,-0.247 z m -0.635,-2.52 q 0.247,-0.056 0.501,-0.084 0.261,-0.035 0.515,-0.035 0.318,0 0.6,0.063 0.29,0.057 0.508,0.205 0.219,0.141 0.346,0.381 0.134,0.233 0.134,0.586 0,0.437 -0.184,0.72 -0.183,0.274 -0.473,0.409 0.36,0.14 0.593,0.43 0.233,0.29 0.233,0.797 0,0.381 -0.127,0.642 -0.12,0.261 -0.346,0.43 -0.226,0.163 -0.543,0.24 -0.31,0.071 -0.684,0.071 -0.247,0 -0.515,-0.028 -0.269,-0.028 -0.558,-0.085 z m 6.011,2.971 q 0,0.438 -0.077,0.798 -0.078,0.352 -0.24,0.606 -0.155,0.254 -0.402,0.395 -0.24,0.142 -0.572,0.142 -0.331,0 -0.578,-0.142 -0.247,-0.14 -0.41,-0.395 -0.155,-0.254 -0.232,-0.606 -0.078,-0.36 -0.078,-0.798 0,-0.43 0.078,-0.79 0.078,-0.36 0.232,-0.614 0.163,-0.26 0.41,-0.402 0.247,-0.141 0.578,-0.141 0.332,0 0.572,0.141 0.247,0.141 0.402,0.402 0.162,0.254 0.24,0.614 0.077,0.36 0.077,0.79 z m -0.635,0 q 0,-0.31 -0.035,-0.564 -0.035,-0.261 -0.113,-0.445 -0.077,-0.19 -0.204,-0.289 -0.127,-0.106 -0.304,-0.106 -0.183,0 -0.31,0.106 -0.12,0.099 -0.205,0.29 -0.077,0.183 -0.113,0.444 -0.035,0.254 -0.035,0.564 0,0.31 0.035,0.572 0.036,0.254 0.113,0.437 0.085,0.184 0.205,0.29 0.127,0.098 0.31,0.098 0.177,0 0.304,-0.099 0.127,-0.105 0.204,-0.289 0.078,-0.183 0.113,-0.437 0.035,-0.261 0.035,-0.572 z m 2.484,1.92 q -0.522,-0.015 -0.748,-0.255 -0.226,-0.247 -0.226,-0.776 v -4.41 l 0.607,-0.105 v 4.53 q 0,0.246 0.099,0.36 0.099,0.105 0.346,0.147 z m 2.35,-3.218 q -0.205,-0.113 -0.438,-0.113 -0.176,0 -0.31,0.07 -0.135,0.071 -0.233,0.234 -0.092,0.162 -0.141,0.43 -0.05,0.268 -0.05,0.663 0,0.762 0.198,1.094 0.204,0.324 0.614,0.324 0.077,0 0.169,-0.007 0.092,-0.014 0.19,-0.042 z m 0,-2.222 0.606,-0.106 v 5.376 q -0.197,0.085 -0.451,0.134 -0.254,0.057 -0.515,0.057 -0.762,0 -1.108,-0.487 -0.339,-0.487 -0.339,-1.468 0,-0.444 0.07,-0.797 0.078,-0.36 0.234,-0.607 0.162,-0.254 0.409,-0.388 0.247,-0.141 0.585,-0.141 0.163,0 0.276,0.035 0.12,0.028 0.232,0.085 z m 2.392,5.045 q 0,0.162 -0.12,0.29 -0.113,0.126 -0.303,0.126 -0.19,0 -0.304,-0.127 -0.113,-0.127 -0.113,-0.289 0,-0.17 0.113,-0.296 0.113,-0.127 0.304,-0.127 0.191,0 0.303,0.127 0.12,0.127 0.12,0.296 z"
         id="path12"
         style="fill:#d5d5d5;fill-opacity:1" />
    </g>
  </g>
  <defs
     id="defs20" />
  <sodipodi:namedview
     id="namedview18"
     pagecolor="#ffffff"
     bordercolor="#666666"
     borderopacity="1.0"
     inkscape:pageshadow="2"
     inkscape:pageopacity="0.0"
     inkscape:pagecheckerboard="true"
     showgrid="false"
     inkscape:zoom="2.8284271"
     inkscape:cx="229.1026"
     inkscape:cy="27.223611"
     inkscape:window-width="2560"
     inkscape:window-height="1348"
     inkscape:window-x="0"
     inkscape:window-y="0"
     inkscape:window-maximized="1"
     inkscape:current-layer="g2286"
     showguides="false" />
  <g
     fill="#ffffff"
     id="g10"
     style="fill:#495057;fill-opacity:1" />
</svg>
